<svg width="22" height="22" viewBox="0 0 22 22" fill="none" xmlns="http://www.w3.org/2000/svg">
<g id="vuesax/linear/hashtag">
<g id="hashtag">
<path id="Vector" d="M11 6.41663V15.5833" stroke="#14141E" stroke-width="1.5" stroke-linecap="round" stroke-linejoin="round"/>
<path id="Vector_2" d="M6.41675 11H15.5834" stroke="#14141E" stroke-width="1.5" stroke-linecap="round" stroke-linejoin="round"/>
<path id="Vector_3" d="M8.24992 20.1667H13.7499C18.3333 20.1667 20.1666 18.3334 20.1666 13.75V8.25004C20.1666 3.66671 18.3333 1.83337 13.7499 1.83337H8.24992C3.66659 1.83337 1.83325 3.66671 1.83325 8.25004V13.75C1.83325 18.3334 3.66659 20.1667 8.24992 20.1667Z" stroke="#14141E" stroke-width="1.5" stroke-linecap="round" stroke-linejoin="round"/>
<path id="Vector_4" d="M9.16675 15.5833H12.8334C14.3459 15.5833 15.5834 14.3458 15.5834 12.8333V9.16663C15.5834 7.65413 14.3459 6.41663 12.8334 6.41663H9.16675C7.65425 6.41663 6.41675 7.65413 6.41675 9.16663V12.8333C6.41675 14.3458 7.65425 15.5833 9.16675 15.5833Z" stroke="#14141E" stroke-width="1.5" stroke-linecap="round" stroke-linejoin="round"/>
</g>
</g>
</svg>
