<svg width="388" height="384" viewBox="0 0 388 384" fill="none" xmlns="http://www.w3.org/2000/svg">
<path d="M275.421 189.436C275.421 189.436 274.723 190.031 273.169 190.583C271.65 191.117 269.119 191.514 266.308 190.496C264.92 189.988 263.48 189.143 262.293 187.868C261.123 186.592 260.128 184.946 259.736 183.023C259.509 182.075 259.447 181.067 259.526 180.05C259.596 179.033 259.832 177.998 260.233 177.016C261.001 175.025 262.494 173.249 264.423 172.042C266.369 170.862 268.639 170.319 270.786 170.508C271.86 170.577 272.898 170.827 273.859 171.215C274.819 171.586 275.709 172.094 276.477 172.706C278.048 173.896 279.113 175.507 279.759 177.102C280.405 178.714 280.536 180.369 280.388 181.817C280.073 184.765 278.607 186.825 277.455 187.945C276.268 189.083 275.421 189.445 275.421 189.445C275.377 189.385 276.18 188.945 277.289 187.79C278.371 186.652 279.724 184.618 279.977 181.782C280.091 180.386 279.934 178.809 279.305 177.283C278.668 175.766 277.647 174.249 276.146 173.128C275.412 172.551 274.566 172.077 273.658 171.732C272.75 171.37 271.764 171.146 270.751 171.077C268.717 170.905 266.579 171.422 264.737 172.534C262.921 173.68 261.507 175.352 260.774 177.223C260.39 178.154 260.163 179.128 260.093 180.093C260.006 181.058 260.067 182.015 260.268 182.911C260.626 184.73 261.56 186.307 262.66 187.54C263.777 188.773 265.139 189.6 266.457 190.117C269.145 191.143 271.589 190.833 273.099 190.376C274.635 189.902 275.386 189.385 275.421 189.445V189.436Z" fill="#E0E0E0"/>
<path d="M277.272 202.831C277.272 202.831 277.368 202.9 277.542 203.072C277.734 203.253 277.996 203.503 278.328 203.822C279.044 204.52 280.065 205.52 281.4 206.813L281.287 206.796C283.356 205.503 286.07 203.813 289.352 201.762L289.291 201.934C288.706 200.305 288.06 198.504 287.371 196.564L287.336 196.47L287.406 196.392C288.724 194.987 289.963 193.324 290.976 191.419L291.028 191.315H291.142C292.94 191.315 294.886 191.315 296.911 191.324L296.71 191.488C297.383 188.592 298.09 185.523 298.84 182.299L298.963 182.558C297.356 181.791 295.584 180.955 293.76 180.093L293.629 180.032V179.886C293.559 177.998 293.245 175.921 292.599 173.887L292.556 173.74L292.669 173.637C293.935 172.396 295.331 171.017 296.763 169.62L296.728 169.939C295.139 167.431 293.42 164.725 291.665 161.949L291.988 162.061C290.295 162.647 288.436 163.285 286.542 163.94L286.384 163.992L286.262 163.88C284.857 162.578 283.146 161.337 281.252 160.355L281.104 160.277V160.105C281.104 158.32 281.121 156.372 281.13 154.407L281.357 154.683C278.415 154.011 275.255 153.295 272.061 152.563L272.392 152.407C271.598 154.028 270.743 155.778 269.887 157.536L269.809 157.691H269.634C267.679 157.76 265.593 158.079 263.576 158.691C263.445 158.657 263.873 158.769 263.28 158.622V158.613L263.262 158.596L263.227 158.562L263.166 158.501L263.035 158.372L262.782 158.113L262.276 157.605L261.254 156.588C260.574 155.916 259.902 155.243 259.229 154.571L259.596 154.614C256.864 156.303 254.158 157.967 251.496 159.605L251.618 159.268C252.255 161.079 252.892 162.871 253.512 164.647L253.573 164.811L253.451 164.94C252.028 166.44 250.824 168.103 249.881 169.879L249.802 170.025H249.628C247.681 170.017 245.752 170.008 243.858 169.991L244.129 169.775C243.396 172.913 242.671 175.973 241.973 178.955L241.824 178.653C243.588 179.498 245.316 180.326 247.018 181.136L247.158 181.205V181.36C247.227 183.437 247.577 185.454 248.161 187.359L248.205 187.505L248.092 187.609C246.686 188.979 245.325 190.307 243.989 191.608L244.024 191.307C245.796 194.125 247.472 196.78 249.06 199.314L248.799 199.219C250.719 198.564 252.517 197.952 254.245 197.357L254.368 197.314L254.464 197.4C256.07 198.892 257.763 200.047 259.474 200.952L259.579 201.003V201.115C259.561 203.184 259.544 205.046 259.535 206.813L259.404 206.649C263 207.485 266.064 208.201 268.691 208.813L268.543 208.881C269.555 206.839 270.393 205.167 271.083 203.77L271.109 203.718H271.17C273.265 203.658 274.801 203.365 275.814 203.15C276.294 203.038 276.669 202.943 276.94 202.882C277.193 202.813 277.315 202.788 277.315 202.796C277.315 202.796 277.193 202.848 276.957 202.925C276.713 203.003 276.346 203.115 275.84 203.236C274.836 203.486 273.291 203.805 271.188 203.891L271.266 203.839C270.594 205.244 269.782 206.925 268.787 208.985L268.744 209.08L268.639 209.054C266.012 208.468 262.939 207.778 259.334 206.968L259.203 206.934V206.796C259.203 205.037 259.203 203.167 259.203 201.098L259.308 201.271C257.562 200.366 255.825 199.193 254.184 197.685L254.394 197.728C252.665 198.331 250.867 198.952 248.956 199.616L248.79 199.676L248.694 199.521C247.088 196.995 245.412 194.349 243.622 191.539L243.518 191.376L243.657 191.238C244.984 189.936 246.346 188.6 247.742 187.221L247.681 187.471C247.07 185.532 246.712 183.463 246.643 181.343L246.791 181.567C245.089 180.757 243.361 179.938 241.597 179.093L241.405 178.998L241.458 178.791C242.156 175.809 242.872 172.741 243.596 169.612L243.649 169.396H243.876C245.77 169.396 247.69 169.413 249.645 169.413L249.392 169.56C250.361 167.741 251.592 166.035 253.049 164.492L252.988 164.776C252.36 163.001 251.731 161.208 251.086 159.398L251.007 159.182L251.208 159.062C253.87 157.424 256.567 155.752 259.299 154.071L259.5 153.95L259.666 154.114C260.338 154.786 261.01 155.459 261.691 156.131L262.712 157.148L263.218 157.657L263.472 157.915L263.603 158.045L263.664 158.105L263.699 158.139L263.716 158.157V158.165C263.122 158.019 263.55 158.122 263.419 158.088C265.488 157.458 267.626 157.131 269.625 157.071L269.372 157.234C270.236 155.476 271.092 153.726 271.886 152.106L271.991 151.899L272.218 151.951C275.412 152.683 278.572 153.407 281.514 154.08L281.741 154.131V154.355C281.732 156.321 281.715 158.269 281.706 160.053L281.557 159.803C283.487 160.811 285.241 162.078 286.681 163.414L286.402 163.354C288.287 162.708 290.155 162.07 291.849 161.484L292.058 161.415L292.172 161.596C293.926 164.371 295.628 167.086 297.217 169.594L297.33 169.767L297.182 169.913C295.75 171.31 294.354 172.672 293.079 173.913L293.14 173.663C293.786 175.74 294.109 177.86 294.162 179.791L294.022 179.584C295.838 180.455 297.601 181.3 299.216 182.075L299.381 182.153L299.338 182.334C298.578 185.557 297.854 188.617 297.164 191.513L297.129 191.677H296.964C294.939 191.66 292.992 191.651 291.194 191.634L291.369 191.531C290.321 193.461 289.064 195.151 287.711 196.556L287.746 196.383C288.418 198.323 289.055 200.133 289.623 201.771L289.658 201.883L289.553 201.943C286.245 203.96 283.513 205.623 281.427 206.89L281.365 206.934L281.313 206.882C280.021 205.563 279.026 204.555 278.337 203.848C278.014 203.512 277.76 203.253 277.577 203.055C277.403 202.874 277.324 202.779 277.324 202.77L277.272 202.831Z" fill="#E0E0E0"/>
<path fill-rule="evenodd" clip-rule="evenodd" d="M296.274 134.643C293.429 135.505 290.504 135.979 287.598 136.074L284.054 143.323L270.909 140.323L270.943 132.273C268.368 130.928 265.959 129.239 263.777 127.23L256.078 129.876L248.93 118.577L254.717 112.914C253.835 110.104 253.364 107.216 253.277 104.346L245.936 100.838L248.973 87.8572L257.126 87.8916C258.488 85.3489 260.198 82.97 262.232 80.8238L259.544 73.2215L270.987 66.1622L276.722 71.8855C279.567 71.0149 282.492 70.5495 285.398 70.4547L288.951 63.2058L302.096 66.2053L302.061 74.2644C304.636 75.6091 307.045 77.2985 309.219 79.3068L316.918 76.6606L324.066 87.9606L318.279 93.6235C319.161 96.4334 319.632 99.3209 319.728 102.191L327.069 105.699L324.031 118.68L315.87 118.645C314.508 121.188 312.798 123.567 310.764 125.722L313.444 133.324L302 140.383L296.257 134.669L296.274 134.643ZM293.656 115.698C300.438 111.517 302.506 102.7 298.273 96.0024C294.04 89.3052 285.11 87.2624 278.328 91.4428C271.546 95.6232 269.477 104.441 273.71 111.138C277.944 117.835 286.873 119.878 293.656 115.698Z" fill="#E0E0E0"/>
<path fill-rule="evenodd" clip-rule="evenodd" d="M327.244 177.576C325.725 178.033 324.18 178.283 322.626 178.334L320.741 182.196L313.749 180.601L313.766 176.318C312.396 175.602 311.113 174.706 309.952 173.637L305.858 175.05L302.061 169.034L305.142 166.017C304.68 164.518 304.427 162.983 304.374 161.458L300.464 159.596L302.079 152.692L306.417 152.709C307.141 151.356 308.049 150.089 309.131 148.951L307.7 144.909L313.793 141.151L316.848 144.193C318.366 143.728 319.911 143.486 321.465 143.435L323.351 139.573L330.342 141.168L330.325 145.452C331.695 146.167 332.978 147.063 334.13 148.132L338.224 146.727L342.03 152.744L338.949 155.76C339.42 157.26 339.665 158.794 339.717 160.32L343.627 162.182L342.013 169.086L337.674 169.069C336.95 170.422 336.042 171.689 334.96 172.835L336.391 176.878L330.299 180.636L327.244 177.593V177.576ZM325.847 167.5C329.452 165.276 330.552 160.587 328.3 157.019C326.048 153.459 321.299 152.373 317.686 154.597C314.081 156.821 312.981 161.509 315.233 165.078C317.485 168.638 322.233 169.724 325.847 167.5Z" fill="#EBEBEB"/>
<path d="M94.3002 113.646C94.3002 113.646 96.6744 99.5878 97.2417 98.519C97.8091 97.4502 104.373 90.8737 105.141 90.7444C105.918 90.6065 116.262 87.4001 115.686 88.9946C115.109 90.5892 107.856 92.7354 107.856 92.7354L107.166 93.5888C107.166 93.5888 113.364 91.5977 114.909 91.6494C116.331 91.6925 116.576 93.1492 115.476 93.5715C114.367 93.9939 108.903 95.5626 108.703 95.8987C108.502 96.2349 114.786 94.4593 115.581 94.4938C116.646 94.5369 117.414 95.8643 116.331 96.3211C115.694 96.5883 109.61 97.9674 109.61 97.9674C109.61 97.9674 114.682 97.3813 115.258 97.5364C116.192 97.7864 116.113 98.9069 115.083 99.1741C114.376 99.3551 110.667 99.5189 109.724 99.7688C109.724 99.7688 109.026 100.364 109.052 102.217C109.078 104.07 106.634 109.017 106.634 109.017L94.3089 113.646H94.3002Z" fill="#FFBE9D"/>
<path d="M115.686 89.0205C115.686 89.0205 115.206 89.6325 114.167 90.3306C113.643 90.6754 112.997 91.046 112.229 91.3822C111.461 91.6666 110.606 91.9597 109.707 92.2614C109.043 92.4855 108.406 92.7009 107.795 92.8992L107.9 92.8389C105.927 94.7782 104.452 96.1401 104.373 96.0711C104.295 96.0022 105.639 94.5196 107.568 92.5372L107.603 92.4941L107.664 92.4682C108.258 92.2614 108.895 92.0459 109.55 91.8132C110.422 91.5201 111.26 91.2443 112.055 90.9771C112.797 90.684 113.443 90.3479 113.975 90.0462C115.031 89.4428 115.625 88.9601 115.677 89.0205H115.686Z" fill="#EB996E"/>
<path d="M253.495 268.07L112.596 253.736C108.284 253.297 105.15 249.496 105.595 245.238L130.001 11.3258C130.629 5.28363 136.102 0.887762 142.23 1.50836L276.565 15.17C282.684 15.7906 287.135 21.195 286.507 27.2457L262.101 261.158C261.656 265.416 257.807 268.51 253.495 268.07Z" fill="#1EACFC"/>
<path opacity="0.4" d="M253.495 268.07L112.596 253.736C108.284 253.297 105.15 249.496 105.595 245.238L130.001 11.3258C130.629 5.28363 136.102 0.887762 142.23 1.50836L276.565 15.17C282.684 15.7906 287.135 21.195 286.507 27.2457L262.101 261.158C261.656 265.416 257.807 268.51 253.495 268.07Z" fill="#14141E"/>
<path d="M239.275 266.622L98.3766 252.288C94.0646 251.849 90.931 248.048 91.3762 243.79L115.782 9.8778C116.41 3.83563 121.883 -0.560236 128.011 0.0603575L262.345 13.722C268.464 14.3426 272.916 19.747 272.287 25.7977L247.882 259.71C247.437 263.968 243.587 267.062 239.275 266.622Z" fill="#1EACFC"/>
<path d="M167.632 202.955L119.043 198.013C117.883 197.895 116.845 198.729 116.725 199.875L114.756 218.755C114.637 219.901 115.481 220.925 116.641 221.043L165.23 225.985C166.391 226.103 167.428 225.269 167.548 224.123L169.517 205.243C169.636 204.097 168.792 203.073 167.632 202.955Z" fill="#1EACFC"/>
<g opacity="0.4">
<path d="M167.632 202.955L119.043 198.013C117.882 197.895 116.845 198.729 116.725 199.875L114.756 218.755C114.637 219.901 115.48 220.925 116.641 221.043L165.23 225.985C166.39 226.103 167.428 225.269 167.547 224.123L169.516 205.243C169.636 204.097 168.792 203.073 167.632 202.955Z" fill="#14141E"/>
</g>
<path d="M125.59 26.2082L120.185 78.0381L253.987 91.6453L259.392 39.8154L125.59 26.2082Z" fill="#FAFAFA"/>
<path d="M253.992 91.6495C253.992 91.6495 254.018 91.3306 254.071 90.7272C254.132 90.1152 254.219 89.2188 254.333 88.0466C254.568 85.6849 254.917 82.2199 255.371 77.7465C256.279 68.8082 257.606 55.8706 259.247 39.8041L259.387 39.9765C225.711 36.5718 178.192 31.7622 125.584 26.4355H125.575L125.829 26.2372C123.934 44.3637 122.101 61.8783 120.417 78.0654L120.225 77.8327C158.945 81.8148 192.359 85.2453 216.11 87.6846C227.989 88.9172 237.451 89.8998 243.954 90.5807C247.201 90.9255 249.706 91.1841 251.408 91.3651C252.255 91.4599 252.892 91.5288 253.338 91.5719C253.774 91.6236 254.001 91.6495 254.001 91.6495C254.001 91.6495 253.791 91.6409 253.364 91.5978C252.927 91.5547 252.29 91.4943 251.452 91.4168C249.759 91.253 247.262 91.003 244.033 90.6927C237.539 90.0463 228.094 89.1068 216.223 87.9259C192.429 85.5298 158.954 82.1596 120.172 78.255L119.954 78.2292L119.98 78.0137C121.665 61.8265 123.489 44.312 125.375 26.1855L125.401 25.9614L125.628 25.9873H125.636C178.236 31.3658 225.755 36.2271 259.421 39.6662L259.579 39.6834L259.561 39.8386C257.842 55.9309 256.462 68.903 255.511 77.8499C255.031 82.3061 254.656 85.7539 254.402 88.1069C254.271 89.2706 254.175 90.1497 254.106 90.7617C254.036 91.3564 253.992 91.6495 253.992 91.6495Z" fill="#14141E"/>
<path d="M146.446 101.589L127.318 99.6434C126.32 99.5419 125.428 100.258 125.326 101.243L123.356 120.132C123.253 121.117 123.978 121.997 124.976 122.099L144.104 124.044C145.101 124.145 145.993 123.429 146.096 122.444L148.066 103.556C148.169 102.571 147.443 101.69 146.446 101.589Z" fill="#1EACFC"/>
<g opacity="0.4">
<path d="M146.446 101.589L127.318 99.6434C126.32 99.5419 125.428 100.258 125.326 101.243L123.356 120.132C123.253 121.117 123.978 121.997 124.976 122.099L144.104 124.044C145.101 124.145 145.993 123.429 146.096 122.444L148.066 103.556C148.169 102.571 147.443 101.69 146.446 101.589Z" fill="#14141E"/>
</g>
<path d="M142.931 101.235L123.803 99.2901C122.805 99.1887 121.914 99.9049 121.811 100.89L119.841 119.778C119.738 120.763 120.463 121.644 121.461 121.745L140.589 123.691C141.587 123.792 142.478 123.076 142.581 122.091L144.551 103.202C144.654 102.218 143.928 101.337 142.931 101.235Z" fill="#14141E"/>
<path d="M134.305 106.871L133.327 116.232L131.137 116.008L131.931 108.388L130.037 108.198L130.22 106.457L134.305 106.871Z" fill="#FAFCFF"/>
<path d="M178.162 104.815L159.034 102.87C158.036 102.768 157.145 103.484 157.042 104.469L155.072 123.358C154.969 124.343 155.694 125.224 156.692 125.325L175.82 127.27C176.818 127.372 177.709 126.656 177.812 125.671L179.782 106.782C179.885 105.797 179.159 104.916 178.162 104.815Z" fill="#1EACFC"/>
<g opacity="0.4">
<path d="M178.162 104.815L159.034 102.87C158.036 102.768 157.144 103.484 157.042 104.469L155.072 123.358C154.969 124.343 155.694 125.224 156.692 125.325L175.82 127.27C176.817 127.372 177.709 126.656 177.812 125.671L179.782 106.782C179.885 105.797 179.159 104.916 178.162 104.815Z" fill="#14141E"/>
</g>
<path d="M174.647 104.461L155.519 102.516C154.521 102.414 153.63 103.13 153.527 104.115L151.557 123.004C151.454 123.989 152.18 124.87 153.177 124.971L172.305 126.916C173.303 127.018 174.194 126.302 174.297 125.317L176.267 106.428C176.37 105.443 175.645 104.562 174.647 104.461Z" fill="#14141E"/>
<path d="M168.652 118.042L168.469 119.809L161.302 119.076L161.451 117.671L165.466 114.637C166.391 113.931 166.583 113.465 166.636 113.017C166.714 112.284 166.243 111.802 165.239 111.698C164.427 111.612 163.703 111.853 163.179 112.431L161.686 111.25C162.524 110.267 163.93 109.724 165.632 109.897C167.744 110.112 169.045 111.327 168.861 113.025C168.765 113.931 168.425 114.741 166.967 115.818L164.576 117.628L168.652 118.042Z" fill="#FAFCFF"/>
<path d="M211.038 108.157L191.91 106.212C190.913 106.111 190.021 106.827 189.918 107.812L187.948 126.7C187.845 127.685 188.571 128.566 189.568 128.667L208.696 130.613C209.694 130.714 210.586 129.998 210.688 129.013L212.658 110.124C212.761 109.139 212.036 108.259 211.038 108.157Z" fill="#1EACFC"/>
<g opacity="0.4">
<path d="M211.038 108.157L191.91 106.212C190.913 106.111 190.021 106.827 189.918 107.812L187.948 126.7C187.845 127.685 188.571 128.566 189.568 128.667L208.696 130.613C209.694 130.714 210.586 129.998 210.688 129.013L212.658 110.124C212.761 109.139 212.036 108.259 211.038 108.157Z" fill="#14141E"/>
</g>
<path d="M207.532 107.804L188.403 105.859C187.406 105.757 186.514 106.474 186.411 107.458L184.441 126.347C184.339 127.332 185.064 128.213 186.061 128.314L205.19 130.259C206.187 130.361 207.079 129.645 207.182 128.66L209.152 109.771C209.254 108.786 208.529 107.905 207.532 107.804Z" fill="#14141E"/>
<path d="M201.56 120.283C201.394 121.86 200.015 123.179 197.317 122.903C195.991 122.765 194.664 122.265 193.808 121.533L194.838 119.964C195.502 120.567 196.471 120.981 197.457 121.084C198.557 121.196 199.273 120.826 199.36 120.059C199.43 119.352 198.95 118.852 197.71 118.731L196.706 118.628L196.855 117.197L199.037 115.215L195.004 114.801L195.188 113.06L201.821 113.732L201.673 115.137L199.281 117.326C200.957 117.766 201.717 118.895 201.577 120.274L201.56 120.283Z" fill="#FAFCFF"/>
<path d="M243.923 111.5L224.795 109.555C223.797 109.454 222.905 110.17 222.803 111.155L220.833 130.043C220.73 131.028 221.455 131.909 222.453 132.01L241.581 133.956C242.578 134.057 243.47 133.341 243.573 132.356L245.543 113.467C245.646 112.482 244.92 111.602 243.923 111.5Z" fill="#1EACFC"/>
<g opacity="0.4">
<path d="M243.923 111.5L224.795 109.555C223.797 109.454 222.905 110.17 222.803 111.155L220.833 130.043C220.73 131.028 221.455 131.909 222.453 132.01L241.581 133.956C242.578 134.057 243.47 133.341 243.573 132.356L245.543 113.467C245.646 112.482 244.92 111.602 243.923 111.5Z" fill="#14141E"/>
</g>
<path d="M240.486 111.147L221.358 109.201C220.36 109.1 219.468 109.816 219.366 110.801L217.396 129.689C217.293 130.674 218.018 131.555 219.016 131.657L238.144 133.602C239.141 133.703 240.033 132.987 240.136 132.002L242.106 113.114C242.209 112.129 241.483 111.248 240.486 111.147Z" fill="#14141E"/>
<path d="M224.608 120.09L224.518 120.947L234.677 121.98L234.767 121.123L224.608 120.09Z" fill="#FAFCFF"/>
<path d="M231.752 116.835C231.656 117.731 230.844 118.386 229.936 118.292C229.029 118.197 228.365 117.395 228.461 116.499C228.557 115.602 229.369 114.947 230.277 115.042C231.185 115.137 231.848 115.938 231.752 116.835Z" fill="#FAFCFF"/>
<path d="M230.835 125.575C230.739 126.471 229.928 127.126 229.02 127.032C228.112 126.937 227.449 126.135 227.545 125.239C227.641 124.342 228.452 123.687 229.36 123.782C230.268 123.877 230.931 124.678 230.835 125.575Z" fill="#FAFCFF"/>
<path d="M143.016 134.494L123.887 132.549C122.89 132.448 121.998 133.164 121.895 134.149L119.925 153.037C119.823 154.022 120.548 154.903 121.545 155.004L140.674 156.95C141.671 157.051 142.563 156.335 142.666 155.35L144.636 136.461C144.738 135.477 144.013 134.596 143.016 134.494Z" fill="#1EACFC"/>
<g opacity="0.4">
<path d="M143.016 134.494L123.887 132.549C122.89 132.448 121.998 133.164 121.895 134.149L119.925 153.037C119.823 154.022 120.548 154.903 121.545 155.004L140.674 156.95C141.671 157.051 142.563 156.335 142.666 155.35L144.636 136.461C144.738 135.477 144.013 134.596 143.016 134.494Z" fill="#14141E"/>
</g>
<path d="M139.51 134.141L120.381 132.196C119.384 132.094 118.492 132.811 118.389 133.796L116.419 152.684C116.317 153.669 117.042 154.55 118.039 154.651L137.168 156.596C138.165 156.698 139.057 155.982 139.16 154.997L141.13 136.108C141.232 135.123 140.507 134.243 139.51 134.141Z" fill="#14141E"/>
<path d="M132.865 147.451L131.32 147.296L131.119 149.261L128.98 149.046L129.181 147.08L124.075 146.563L124.223 145.107L129.312 139.625L131.616 139.857L126.885 145.064L129.434 145.322L129.618 143.572L131.686 143.779L131.503 145.529L133.048 145.684L132.865 147.451Z" fill="#FAFCFF"/>
<path d="M174.731 137.712L155.603 135.767C154.605 135.665 153.714 136.381 153.611 137.366L151.641 156.255C151.538 157.24 152.263 158.121 153.261 158.222L172.389 160.167C173.387 160.269 174.278 159.552 174.381 158.568L176.351 139.679C176.454 138.694 175.729 137.813 174.731 137.712Z" fill="#1EACFC"/>
<g opacity="0.4">
<path d="M174.731 137.712L155.603 135.767C154.606 135.665 153.714 136.381 153.611 137.366L151.641 156.255C151.539 157.24 152.264 158.121 153.261 158.222L172.389 160.167C173.387 160.269 174.279 159.552 174.381 158.568L176.351 139.679C176.454 138.694 175.729 137.813 174.731 137.712Z" fill="#14141E"/>
</g>
<path d="M171.216 137.358L152.088 135.413C151.091 135.311 150.199 136.027 150.096 137.012L148.126 155.901C148.023 156.886 148.749 157.767 149.746 157.868L168.874 159.813C169.872 159.915 170.764 159.198 170.866 158.214L172.836 139.325C172.939 138.34 172.214 137.459 171.216 137.358Z" fill="#14141E"/>
<path d="M164.296 149.658C164.121 151.313 162.742 152.631 160.036 152.355C158.727 152.218 157.383 151.718 156.527 150.985L157.566 149.416C158.23 150.028 159.181 150.433 160.167 150.537C161.267 150.649 161.992 150.261 162.07 149.502C162.149 148.77 161.712 148.235 159.993 148.063L157.566 147.813L158.605 142.598L164.383 143.184L164.2 144.926L160.246 144.521L159.914 146.279L160.682 146.356C163.484 146.641 164.462 148.003 164.296 149.658Z" fill="#FAFCFF"/>
<path d="M207.608 141.054L188.48 139.109C187.482 139.008 186.59 139.724 186.488 140.709L184.518 159.597C184.415 160.582 185.14 161.463 186.138 161.565L205.266 163.51C206.263 163.611 207.155 162.895 207.258 161.91L209.228 143.022C209.331 142.037 208.605 141.156 207.608 141.054Z" fill="#1EACFC"/>
<g opacity="0.4">
<path d="M207.608 141.054L188.48 139.109C187.482 139.008 186.59 139.724 186.488 140.709L184.518 159.597C184.415 160.582 185.14 161.463 186.138 161.565L205.266 163.51C206.263 163.611 207.155 162.895 207.258 161.91L209.228 143.022C209.331 142.037 208.605 141.156 207.608 141.054Z" fill="#14141E"/>
</g>
<path d="M204.102 140.701L184.974 138.756C183.976 138.654 183.084 139.371 182.982 140.356L181.012 159.244C180.909 160.229 181.634 161.11 182.632 161.211L201.76 163.157C202.757 163.258 203.649 162.542 203.752 161.557L205.722 142.668C205.825 141.683 205.099 140.803 204.102 140.701Z" fill="#14141E"/>
<path d="M197.841 153.063C197.64 154.976 195.929 156.019 193.93 155.812C191.32 155.545 189.863 153.761 190.177 150.744C190.517 147.512 192.682 145.9 195.536 146.193C196.54 146.296 197.492 146.624 198.111 147.107L197.134 148.615C196.645 148.21 196.043 148.029 195.405 147.968C193.826 147.805 192.708 148.624 192.455 150.408C193.066 149.916 193.895 149.718 194.882 149.813C196.706 150.003 198.024 151.296 197.841 153.063ZM195.702 152.95C195.79 152.097 195.213 151.485 194.236 151.382C193.276 151.287 192.534 151.804 192.455 152.623C192.368 153.425 192.918 154.08 193.974 154.183C194.908 154.278 195.615 153.812 195.702 152.95Z" fill="#FAFCFF"/>
<path d="M240.493 144.397L221.365 142.452C220.367 142.351 219.475 143.067 219.373 144.052L217.403 162.94C217.3 163.925 218.025 164.806 219.023 164.908L238.151 166.853C239.148 166.954 240.04 166.238 240.143 165.253L242.113 146.365C242.215 145.38 241.49 144.499 240.493 144.397Z" fill="#1EACFC"/>
<g opacity="0.4">
<path d="M240.493 144.397L221.365 142.452C220.367 142.351 219.475 143.067 219.373 144.052L217.403 162.94C217.3 163.925 218.025 164.806 219.023 164.908L238.151 166.853C239.148 166.954 240.04 166.238 240.143 165.253L242.113 146.365C242.215 145.38 241.49 144.499 240.493 144.397Z" fill="#14141E"/>
</g>
<path d="M236.969 144.043L217.841 142.098C216.843 141.997 215.951 142.713 215.849 143.698L213.879 162.586C213.776 163.571 214.501 164.452 215.499 164.554L234.627 166.499C235.624 166.6 236.516 165.884 236.619 164.899L238.589 146.011C238.692 145.026 237.966 144.145 236.969 144.043Z" fill="#14141E"/>
<path d="M229.972 150.846L221.953 157.09L222.494 157.767L230.513 151.522L229.972 150.846Z" fill="#FAFCFF"/>
<path d="M223.359 150.155L222.682 150.699L229.126 158.523L229.803 157.979L223.359 150.155Z" fill="#FAFCFF"/>
<path d="M139.612 167.12L120.484 165.174C119.487 165.073 118.595 165.789 118.492 166.774L116.522 185.663C116.42 186.648 117.145 187.528 118.142 187.63L137.271 189.575C138.268 189.676 139.16 188.96 139.263 187.975L141.233 169.087C141.335 168.102 140.61 167.221 139.612 167.12Z" fill="#1EACFC"/>
<g opacity="0.4">
<path d="M139.613 167.12L120.485 165.174C119.488 165.073 118.596 165.789 118.493 166.774L116.523 185.663C116.42 186.648 117.146 187.528 118.143 187.63L137.271 189.575C138.269 189.676 139.161 188.96 139.263 187.975L141.233 169.087C141.336 168.102 140.611 167.221 139.613 167.12Z" fill="#14141E"/>
</g>
<path d="M136.098 166.758L116.97 164.813C115.973 164.711 115.081 165.428 114.978 166.413L113.008 185.301C112.905 186.286 113.631 187.167 114.628 187.268L133.756 189.213C134.754 189.315 135.645 188.599 135.748 187.614L137.718 168.725C137.821 167.74 137.096 166.86 136.098 166.758Z" fill="#14141E"/>
<path d="M128.971 172.559L128.822 173.964L124.467 181.558L122.084 181.317L126.273 174.068L123.131 173.749L122.974 175.275L121.027 175.076L121.368 171.784L128.962 172.559H128.971Z" fill="#FAFCFF"/>
<path d="M171.329 170.346L152.201 168.401C151.203 168.299 150.312 169.015 150.209 170L148.239 188.889C148.136 189.874 148.862 190.755 149.859 190.856L168.987 192.801C169.985 192.903 170.876 192.187 170.979 191.202L172.949 172.313C173.052 171.328 172.327 170.447 171.329 170.346Z" fill="#1EACFC"/>
<g opacity="0.4">
<path d="M171.329 170.346L152.201 168.401C151.204 168.299 150.312 169.015 150.209 170L148.239 188.889C148.136 189.874 148.862 190.755 149.859 190.856L168.987 192.801C169.985 192.903 170.877 192.187 170.979 191.202L172.949 172.313C173.052 171.328 172.327 170.447 171.329 170.346Z" fill="#14141E"/>
</g>
<path d="M167.814 169.992L148.686 168.047C147.689 167.946 146.797 168.662 146.694 169.647L144.724 188.535C144.621 189.52 145.347 190.401 146.344 190.502L165.472 192.448C166.47 192.549 167.361 191.833 167.464 190.848L169.434 171.959C169.537 170.974 168.812 170.094 167.814 169.992Z" fill="#14141E"/>
<path d="M161.634 182.601C161.45 184.368 159.74 185.316 157.331 185.066C154.93 184.825 153.464 183.549 153.647 181.791C153.752 180.791 154.354 180.093 155.314 179.731C154.651 179.231 154.328 178.533 154.415 177.696C154.59 176.05 156.187 175.171 158.334 175.395C160.516 175.619 161.896 176.8 161.721 178.446C161.634 179.291 161.162 179.903 160.412 180.256C161.285 180.808 161.739 181.61 161.634 182.609V182.601ZM159.417 182.308C159.504 181.48 158.867 180.903 157.767 180.791C156.685 180.679 155.951 181.118 155.864 181.946C155.777 182.773 156.397 183.368 157.479 183.471C158.579 183.583 159.321 183.135 159.408 182.299L159.417 182.308ZM156.58 178.007C156.51 178.714 157.034 179.213 157.924 179.308C158.832 179.403 159.46 179.015 159.53 178.308C159.609 177.576 159.059 177.067 158.16 176.981C157.278 176.895 156.65 177.274 156.571 178.007H156.58Z" fill="#FAFCFF"/>
<path d="M204.205 173.688L185.076 171.743C184.079 171.642 183.187 172.358 183.084 173.343L181.114 192.231C181.012 193.216 181.737 194.097 182.734 194.198L201.863 196.144C202.86 196.245 203.752 195.529 203.855 194.544L205.825 175.655C205.927 174.67 205.202 173.79 204.205 173.688Z" fill="#1EACFC"/>
<g opacity="0.4">
<path d="M204.205 173.688L185.077 171.743C184.08 171.642 183.188 172.358 183.085 173.343L181.115 192.231C181.012 193.216 181.738 194.097 182.735 194.198L201.863 196.144C202.861 196.245 203.753 195.529 203.855 194.544L205.825 175.655C205.928 174.67 205.203 173.79 204.205 173.688Z" fill="#14141E"/>
</g>
<path d="M200.698 173.335L181.57 171.39C180.573 171.289 179.681 172.005 179.578 172.99L177.608 191.878C177.506 192.863 178.231 193.744 179.228 193.845L198.357 195.791C199.354 195.892 200.246 195.176 200.349 194.191L202.319 175.302C202.421 174.317 201.696 173.437 200.698 173.335Z" fill="#14141E"/>
<path d="M194.375 183.739C194.034 186.971 191.887 188.583 189.015 188.29C188.012 188.186 187.078 187.859 186.458 187.385L187.436 185.876C187.916 186.273 188.509 186.462 189.164 186.523C190.735 186.686 191.861 185.868 192.114 184.066C191.503 184.557 190.656 184.773 189.67 184.67C187.846 184.48 186.528 183.187 186.711 181.42C186.912 179.507 188.623 178.464 190.622 178.67C193.249 178.938 194.689 180.722 194.375 183.739ZM192.097 181.86C192.184 181.058 191.634 180.403 190.587 180.299C189.653 180.205 188.946 180.67 188.858 181.532C188.771 182.385 189.347 182.997 190.325 183.101C191.285 183.196 192.009 182.678 192.097 181.86Z" fill="#FAFCFF"/>
<path d="M237.081 177.032L217.953 175.086C216.956 174.985 216.064 175.701 215.961 176.686L213.991 195.575C213.888 196.559 214.614 197.44 215.611 197.542L234.739 199.487C235.737 199.588 236.629 198.872 236.731 197.887L238.701 178.999C238.804 178.014 238.079 177.133 237.081 177.032Z" fill="#1EACFC"/>
<g opacity="0.4">
<path d="M237.081 177.032L217.953 175.086C216.955 174.985 216.064 175.701 215.961 176.686L213.991 195.575C213.888 196.559 214.613 197.44 215.611 197.542L234.739 199.487C235.737 199.588 236.628 198.872 236.731 197.887L238.701 178.999C238.804 178.014 238.079 177.133 237.081 177.032Z" fill="#14141E"/>
</g>
<path d="M233.566 176.678L214.438 174.732C213.441 174.631 212.549 175.347 212.446 176.332L210.476 195.221C210.373 196.205 211.099 197.086 212.096 197.188L231.224 199.133C232.222 199.234 233.114 198.518 233.216 197.533L235.186 178.645C235.289 177.66 234.564 176.779 233.566 176.678Z" fill="#14141E"/>
<path d="M217.814 186.004L217.725 186.861L227.884 187.894L227.973 187.037L217.814 186.004Z" fill="#FAFCFF"/>
<path d="M200.773 206.603L181.645 204.657C180.648 204.556 179.756 205.272 179.653 206.257L177.683 225.146C177.58 226.13 178.306 227.011 179.303 227.113L198.431 229.058C199.429 229.159 200.321 228.443 200.423 227.458L202.393 208.57C202.496 207.585 201.771 206.704 200.773 206.603Z" fill="#1EACFC"/>
<g opacity="0.4">
<path d="M200.773 206.602L181.645 204.657C180.647 204.556 179.756 205.272 179.653 206.257L177.683 225.145C177.58 226.13 178.305 227.011 179.303 227.112L198.431 229.058C199.429 229.159 200.32 228.443 200.423 227.458L202.393 208.569C202.496 207.584 201.771 206.704 200.773 206.602Z" fill="#14141E"/>
</g>
<path d="M197.258 206.249L178.13 204.303C177.133 204.202 176.241 204.918 176.138 205.903L174.168 224.792C174.065 225.776 174.791 226.657 175.788 226.759L194.916 228.704C195.914 228.805 196.806 228.089 196.908 227.104L198.878 208.216C198.981 207.231 198.256 206.35 197.258 206.249Z" fill="#14141E"/>
<path d="M233.649 209.953L214.521 208.008C213.523 207.907 212.631 208.623 212.529 209.608L210.559 228.496C210.456 229.481 211.181 230.362 212.179 230.463L231.307 232.409C232.304 232.51 233.196 231.794 233.299 230.809L235.269 211.92C235.371 210.936 234.646 210.055 233.649 209.953Z" fill="#1EACFC"/>
<g opacity="0.4">
<path d="M233.649 209.953L214.52 208.008C213.523 207.907 212.631 208.623 212.528 209.608L210.558 228.496C210.456 229.481 211.181 230.362 212.178 230.463L231.307 232.409C232.304 232.51 233.196 231.794 233.299 230.809L235.269 211.92C235.371 210.936 234.646 210.055 233.649 209.953Z" fill="#14141E"/>
</g>
<path d="M230.134 209.6L211.006 207.655C210.009 207.554 209.117 208.27 209.014 209.255L207.044 228.143C206.942 229.128 207.667 230.009 208.664 230.11L227.792 232.056C228.79 232.157 229.682 231.441 229.784 230.456L231.754 211.567C231.857 210.582 231.132 209.702 230.134 209.6Z" fill="#455A64"/>
<path d="M214.514 217.693L214.424 218.55L224.583 219.583L224.672 218.726L214.514 217.693Z" fill="#FAFCFF"/>
<path d="M214.112 221.512L214.022 222.37L224.181 223.403L224.27 222.546L214.112 221.512Z" fill="#FAFCFF"/>
<path d="M163.303 202.511L112.743 197.369C111.544 197.247 110.473 198.108 110.349 199.292L108.394 218.035C108.271 219.219 109.143 220.277 110.341 220.399L160.901 225.541C162.1 225.663 163.172 224.802 163.296 223.618L165.25 204.875C165.374 203.691 164.502 202.633 163.303 202.511Z" fill="#14141E"/>
<path d="M134.775 210.795C135.098 207.709 137.01 206.132 139.341 206.364C141.68 206.606 143.216 208.528 142.902 211.614C142.579 214.699 140.676 216.277 138.337 216.044C136.006 215.811 134.461 213.88 134.775 210.795ZM140.694 211.398C140.912 209.269 140.248 208.312 139.149 208.2C138.066 208.088 137.22 208.898 136.993 211.019C136.774 213.148 137.438 214.104 138.52 214.217C139.62 214.329 140.467 213.527 140.694 211.398Z" fill="#FAFCFF"/>
<path d="M186.675 211.452L185.479 221.467L186.345 221.568L187.542 211.553L186.675 211.452Z" fill="#FAFCFF"/>
<path d="M181.492 215.574L181.403 216.431L191.562 217.464L191.651 216.607L181.492 215.574Z" fill="#FAFCFF"/>
<path d="M176.734 57.8529L175.277 71.8421L174.604 71.7732L176.001 58.3959L172.44 58.0339L172.501 57.4133L176.734 57.8443V57.8529Z" fill="#14141E"/>
<path d="M188.378 72.5576L188.317 73.1782L178.724 72.2042L178.777 71.7216L185.48 66.3C187.401 64.7571 187.872 63.7745 187.986 62.6368C188.178 60.775 186.991 59.4476 184.52 59.189C182.635 58.9994 181.203 59.3959 180.095 60.4388L179.676 59.9561C180.854 58.8615 182.521 58.3702 184.608 58.577C187.322 58.8529 188.893 60.4043 188.658 62.6626C188.518 63.9814 187.977 65.1019 185.917 66.7482L179.816 71.6871L188.378 72.5576Z" fill="#14141E"/>
<path d="M199.604 70.4026C199.359 72.7212 197.526 74.1951 194.41 73.8762C192.28 73.6607 190.482 72.6695 189.697 71.4369L190.107 70.9974C190.831 72.1006 192.429 73.0488 194.454 73.2556C197.168 73.5314 198.722 72.3592 198.932 70.3337C199.141 68.2909 197.902 66.8514 194.908 66.5498L194.122 66.4722L194.175 65.9895L199.185 60.7576L191.373 59.9646L191.434 59.344L200.136 60.2318L200.084 60.7145L195.056 65.9637C198.373 66.2998 199.848 68.0668 199.604 70.4026Z" fill="#14141E"/>
<path d="M213.552 71.6612L210.471 71.3509L210.052 75.3934L209.38 75.3245L209.799 71.2906L201.664 70.4631L201.716 69.9805L210.541 61.3008L211.326 61.3784L202.615 69.946L209.86 70.6786L210.226 67.1188L210.899 67.1878L210.532 70.7476L213.613 71.0579L213.552 71.6612Z" fill="#14141E"/>
<path d="M216.511 75.4363C216.485 75.6949 216.407 75.8501 216.311 76.1604L215.298 78.7634L214.774 78.7117L215.691 76.0138C215.35 75.919 215.132 75.6346 215.176 75.2984C215.211 74.9364 215.525 74.6692 215.909 74.7037C216.311 74.7468 216.546 75.1088 216.511 75.4277V75.4363Z" fill="#14141E"/>
<path d="M230.556 73.3935L227.474 73.0832L227.055 77.1257L226.383 77.0567L226.802 73.0142L218.667 72.1868L218.719 71.7041L227.544 63.0244L228.33 63.102L219.619 71.6696L226.863 72.4109L227.23 68.8511L227.902 68.92L227.535 72.4798L230.617 72.7901L230.556 73.3935Z" fill="#14141E"/>
<path d="M241.074 74.5401C240.838 76.8156 239.049 78.4188 235.837 78.0912C233.751 77.8758 231.935 76.8845 231.141 75.652L231.577 75.2124C232.284 76.3157 233.899 77.2638 235.907 77.4707C238.682 77.7551 240.184 76.4536 240.393 74.4711C240.62 72.3077 239.459 70.9027 235.409 70.489L232.66 70.2045L234.1 63.6797L241.406 64.421L241.345 65.0415L234.606 64.352L233.436 69.6443L235.619 69.8684C239.948 70.308 241.345 72.0491 241.083 74.5228L241.074 74.5401Z" fill="#14141E"/>
<path d="M86.2435 361.202L80.692 381.458L98.7255 383.087L102.514 363.797L86.2435 361.202Z" fill="#0066F9"/>
<path d="M99.2498 381.441C99.2498 381.51 98.2372 381.484 96.605 381.355C94.9814 381.225 92.7381 380.984 90.2766 380.665C87.9024 380.346 85.7552 380.062 83.9745 379.829C82.3597 379.605 81.3646 379.458 81.3733 379.381C81.3733 379.312 82.3859 379.346 84.0181 379.476C85.6417 379.605 87.885 379.855 90.3465 380.165C92.7207 380.475 94.8679 380.76 96.6486 380.993C98.2634 381.208 99.2585 381.363 99.2498 381.432V381.441Z" fill="#14141E"/>
<g opacity="0.6">
<path d="M80.6919 381.458L98.7254 383.087L99.0222 381.605L81.2156 379.364L80.7093 381.26" fill="#FAFCFF"/>
</g>
<path d="M89.6475 380.562C89.5341 380.536 90.3022 377.062 91.3584 372.796C92.4233 368.538 93.3747 365.107 93.4882 365.133C93.6016 365.159 92.8335 368.632 91.7773 372.899C90.7212 377.157 89.761 380.587 89.6475 380.562Z" fill="#14141E"/>
<path d="M98.2541 381.303C98.1406 381.303 98.8302 379.846 98.2978 377.536C98.0184 376.407 97.4249 375.097 96.3251 374.011C95.2427 372.916 93.6192 372.158 91.8385 371.977C90.0491 371.804 88.3121 372.235 87.0115 373.063C85.6935 373.882 84.7857 374.993 84.2009 376.011C83.0574 378.088 83.1622 379.648 83.0662 379.622C83.0487 379.622 83.04 379.527 83.04 379.355C83.0312 379.174 83.04 378.915 83.0836 378.588C83.1622 377.924 83.3891 376.959 83.939 375.873C84.5064 374.804 85.4229 373.623 86.802 372.744C88.1637 371.847 90.0055 371.391 91.8822 371.572C93.7588 371.761 95.4784 372.58 96.6044 373.752C97.7479 374.916 98.3414 376.304 98.5945 377.484C98.8302 378.674 98.7517 379.674 98.5945 380.329C98.516 380.656 98.4462 380.906 98.3763 381.07C98.3152 381.234 98.2716 381.32 98.2541 381.311V381.303Z" fill="#14141E"/>
<path d="M160.647 358.892L159.574 374.847C159.574 374.847 175.661 380.113 175.748 383.087L144.325 383.311L144.962 358.384L160.647 358.892Z" fill="#0066F9"/>
<g opacity="0.6">
<path d="M149.902 373.218C149.291 373.364 148.846 374.028 148.968 374.64C149.09 375.252 149.771 375.7 150.382 375.562C150.993 375.424 151.552 374.649 151.36 374.054C151.168 373.459 150.347 372.976 149.78 373.252" fill="#FAFCFF"/>
</g>
<g opacity="0.6">
<path d="M144.325 383.311L144.491 380.802L174.744 381.63C174.744 381.63 175.757 382.061 175.914 383.319H144.333L144.325 383.311Z" fill="#FAFCFF"/>
</g>
<path d="M160.089 374.709C160.08 374.864 159.312 374.907 158.544 375.372C157.758 375.821 157.357 376.458 157.217 376.398C157.078 376.364 157.331 375.467 158.273 374.915C159.207 374.364 160.133 374.571 160.098 374.709H160.089Z" fill="#14141E"/>
<path d="M163.345 376.148C163.38 376.295 162.707 376.536 162.166 377.157C161.608 377.769 161.45 378.458 161.302 378.441C161.154 378.458 161.075 377.571 161.765 376.803C162.446 376.036 163.345 375.993 163.345 376.14V376.148Z" fill="#14141E"/>
<path d="M165.091 380.096C164.951 380.122 164.759 379.363 165.178 378.544C165.588 377.725 166.321 377.415 166.382 377.544C166.461 377.674 165.99 378.105 165.649 378.777C165.3 379.449 165.239 380.079 165.082 380.096H165.091Z" fill="#14141E"/>
<path d="M159.923 371.046C159.853 371.184 159.155 370.951 158.291 370.985C157.418 371.003 156.737 371.27 156.659 371.132C156.571 371.02 157.252 370.477 158.273 370.451C159.295 370.416 160.002 370.925 159.923 371.037V371.046Z" fill="#14141E"/>
<g opacity="0.3">
<path d="M160.429 362.056L160.246 364.9L144.814 364.297L144.875 361.728L160.429 362.056Z" fill="#14141E"/>
</g>
<path d="M160.08 367.822C160.08 367.882 159.469 367.96 158.509 367.77C158.029 367.675 157.47 367.503 156.876 367.219C156.58 367.081 156.283 366.917 155.986 366.719C155.846 366.624 155.672 366.52 155.523 366.339C155.358 366.176 155.27 365.771 155.48 365.529C155.646 365.296 155.934 365.202 156.161 365.202C156.396 365.202 156.58 365.253 156.745 365.296C157.095 365.391 157.418 365.512 157.714 365.658C158.308 365.943 158.779 366.305 159.137 366.641C159.844 367.331 160.08 367.9 160.027 367.934C159.958 367.986 159.617 367.494 158.893 366.926C158.535 366.641 158.064 366.348 157.514 366.107C157.234 365.986 156.938 365.883 156.623 365.805C156.292 365.71 156.012 365.702 155.916 365.839C155.881 365.891 155.881 365.917 155.942 366.012C156.012 366.107 156.143 366.193 156.283 366.288C156.553 366.477 156.833 366.641 157.103 366.779C157.645 367.063 158.16 367.262 158.605 367.4C159.495 367.675 160.089 367.736 160.08 367.813V367.822Z" fill="#14141E"/>
<path d="M159.871 368.029C159.818 368.055 159.53 367.494 159.504 366.52C159.495 366.029 159.565 365.443 159.775 364.822C159.879 364.512 160.019 364.202 160.202 363.892C160.394 363.59 160.63 363.185 161.232 363.133C161.547 363.133 161.791 363.374 161.878 363.59C161.974 363.805 161.992 363.986 162.018 364.167C162.062 364.529 162.044 364.883 161.983 365.21C161.861 365.865 161.573 366.408 161.259 366.796C160.621 367.581 159.975 367.744 159.967 367.693C159.914 367.615 160.464 367.339 160.953 366.581C161.198 366.21 161.416 365.71 161.494 365.133C161.538 364.848 161.538 364.538 161.494 364.236C161.459 363.909 161.337 363.633 161.215 363.667C161.058 363.667 160.787 363.9 160.648 364.159C160.482 364.435 160.342 364.71 160.229 364.986C160.01 365.538 159.914 366.072 159.879 366.529C159.81 367.434 159.958 368.012 159.879 368.029H159.871Z" fill="#14141E"/>
<path d="M92.5112 110.353C92.5112 110.353 89.107 128.712 86.3661 139.823C84.2451 148.451 78.7372 164.621 88.6967 169.318C98.6562 174.016 112.046 155.062 112.046 155.062L117.728 111.853C113.766 112.586 109.288 117.111 104.513 123.782L105.377 107.388L92.5024 110.353H92.5112Z" fill="#455A64"/>
<path d="M229.569 137.47L224.332 139.935L219.514 132.462L222.333 126.696C222.604 126.161 222.883 125.558 223.189 124.868C223.538 124.067 223.747 123.205 223.808 122.334C223.887 121.274 223.931 119.869 223.721 119.085C223.459 118.119 224.489 117.335 225.196 117.895C225.894 118.456 226.68 121.093 226.156 124.265C225.633 127.446 229.386 124.075 230.774 122.869C232.162 121.662 236.622 118.145 237.32 118.283C238.35 118.481 238.315 119.636 236.91 120.809C235.479 121.99 231.507 125.791 232.162 126.497C232.162 126.497 232.17 126.497 232.197 126.497C233.873 126.67 235.243 127.894 235.618 129.514C235.976 131.083 236.264 133.238 235.374 133.953C233.698 135.298 229.587 137.461 229.587 137.461L229.569 137.47Z" fill="#FFBE9D"/>
<path d="M128.019 67.8083L127.879 112.724L147.397 113.646L147.964 102.717C147.964 102.717 154.895 104.079 156.684 97.7174C157.828 93.6577 157.54 62.2747 157.54 62.2747L128.019 67.7997V67.8083Z" fill="#FFBE9D"/>
<path d="M161.939 66.7136C160.621 69.3943 154.362 74.3073 154.362 74.3073L151.534 81.7889C149.081 79.8926 145.782 79.9961 145.153 84.2626C144.699 87.3397 148.584 87.9689 148.584 87.9689C146.323 91.7615 144.796 94.83 141.505 98.4415C137.943 102.346 135.953 102.743 132.095 102.803H127.844C127.844 102.803 119.142 95.6229 120.861 76.7035C122.581 57.784 139.803 63.3004 143.914 58.577C150.609 50.8799 166.321 57.7581 161.93 66.7223L161.939 66.7136Z" fill="#14141E"/>
<path d="M121.83 92.5113C121.83 92.5113 122.022 92.5113 122.371 92.5113C122.729 92.4941 123.253 92.4769 123.916 92.3389C125.234 92.0804 127.102 91.3219 128.918 89.7273C130.751 88.1499 132.357 85.7538 133.989 83.0301C134.818 81.6768 135.682 80.2374 136.73 78.8497C137.777 77.4706 139.008 76.1173 140.562 75.083C142.107 74.0401 143.852 73.4281 145.537 72.9885C147.23 72.5489 148.898 72.2817 150.469 71.98C153.611 71.4112 156.431 70.5406 158.351 69.0753C160.28 67.6186 161.24 65.8086 161.537 64.5243C161.711 63.8779 161.711 63.3521 161.72 63.0073C161.703 62.6539 161.703 62.4729 161.703 62.4729C161.703 62.4729 161.729 62.6539 161.755 63.0073C161.755 63.3607 161.755 63.8865 161.598 64.5415C161.31 65.8431 160.358 67.6876 158.421 69.1788C156.483 70.6871 153.637 71.5663 150.495 72.1524C148.924 72.4627 147.257 72.7299 145.572 73.1695C143.896 73.6091 142.177 74.2125 140.658 75.2382C139.13 76.2552 137.908 77.5912 136.869 78.9617C135.831 80.3408 134.967 81.763 134.137 83.1162C132.505 85.8313 130.873 88.2448 129.014 89.8221C127.172 91.4167 125.278 92.1666 123.942 92.4079C123.27 92.5458 122.738 92.5458 122.38 92.5544C122.022 92.5372 121.839 92.52 121.839 92.52L121.83 92.5113Z" fill="#455A64"/>
<path d="M120.826 77.1257C120.826 77.1257 121.132 77.0051 121.734 76.8068C122.327 76.6172 123.218 76.3155 124.405 76.1776C125.574 76.0483 127.154 76.1 128.595 77.074C129.293 77.5481 129.921 78.3152 130.087 79.2806C130.253 80.2115 130.044 81.3492 129.223 82.0991C128.822 82.4697 128.263 82.6766 127.696 82.7024C127.119 82.7283 126.543 82.5473 126.028 82.2629C125.007 81.6767 124.178 80.6683 123.794 79.4702C123.384 78.2807 123.314 76.9447 123.628 75.6432C123.933 74.3417 124.658 73.0919 125.732 72.161C126.788 71.2215 128.176 70.575 129.668 70.4199C131.161 70.2647 132.68 70.5836 134.155 70.9888C135.639 71.3939 137.123 71.8679 138.694 72.0662C140.256 72.273 141.871 72.2817 143.477 72.0748C145.074 71.8593 146.654 71.4801 148.077 70.8164C149.482 70.1613 150.757 69.0839 151.158 67.6272C151.569 66.205 151.176 64.576 150.137 63.5847C149.098 62.5763 147.431 62.4384 146.192 63.0072C145.572 63.2917 145.031 63.7571 144.734 64.3519C144.42 64.938 144.341 65.6189 144.42 66.2567C144.594 67.541 145.371 68.6874 146.401 69.3425C147.44 70.0148 148.662 70.2647 149.814 70.2906C150.975 70.3251 152.075 70.1096 153.087 69.8079C155.121 69.1873 156.745 68.0668 157.932 66.8946C159.136 65.7223 159.922 64.4811 160.437 63.4296C160.969 62.378 161.188 61.4816 161.353 60.8869C161.476 60.2749 161.545 59.9646 161.545 59.9646C161.545 59.9646 161.502 60.2835 161.388 60.8955C161.231 61.4902 161.022 62.3953 160.498 63.4641C159.992 64.5329 159.215 65.7827 158.002 66.9721C156.806 68.1616 155.182 69.2994 153.122 69.9372C152.101 70.2561 150.984 70.463 149.805 70.4371C148.636 70.4113 147.388 70.1613 146.314 69.4804C145.24 68.8081 144.437 67.6272 144.254 66.2912C144.167 65.6275 144.254 64.9121 144.577 64.2915C144.891 63.6623 145.458 63.1624 146.104 62.8693C147.396 62.2746 149.133 62.4039 150.233 63.4727C151.333 64.5156 151.726 66.1964 151.307 67.6875C150.879 69.2132 149.561 70.3251 148.129 70.9888C146.681 71.6697 145.092 72.0403 143.477 72.2644C141.854 72.4713 140.221 72.4627 138.65 72.2558C137.061 72.0576 135.56 71.5835 134.094 71.1784C132.627 70.7733 131.135 70.4543 129.677 70.6095C128.228 70.756 126.866 71.3852 125.836 72.2989C123.698 74.1262 123.13 77.1344 123.933 79.4357C124.3 80.608 125.103 81.5819 126.089 82.1508C126.587 82.4266 127.137 82.599 127.678 82.5818C128.219 82.5559 128.743 82.3577 129.127 82.0129C129.904 81.3147 130.122 80.2115 129.956 79.315C129.799 78.3842 129.197 77.6429 128.516 77.1774C127.119 76.2207 125.557 76.1517 124.396 76.2724C123.209 76.4017 122.327 76.6861 121.725 76.8671C121.123 77.0568 120.809 77.1516 120.809 77.1516L120.826 77.1257Z" fill="#455A64"/>
<path d="M107.96 199.4L81.9838 367.882L103.561 370.589L134.007 229.266L141.671 371.537L165.055 371.132L161.179 199.796L107.96 199.4Z" fill="#14141E"/>
<path d="M141.261 371.977L141.235 371.563L133.745 232.55L103.902 371.072L81.4865 368.262L107.585 198.969L161.599 199.374L165.492 371.563L141.243 371.985L141.261 371.977ZM134.269 225.991L142.09 371.106L164.619 370.718L160.761 200.227L108.345 199.84L82.4903 367.52L103.221 370.123L134.269 225.999V225.991Z" fill="#14141E"/>
<path d="M158.107 370.865C157.985 370.865 157.88 337.103 157.88 295.471C157.88 253.84 157.985 220.069 158.107 220.069C158.229 220.069 158.334 253.823 158.334 295.471C158.334 337.12 158.229 370.865 158.107 370.865Z" fill="#455A64"/>
<path d="M98.813 370.253C98.813 370.253 98.8217 370.123 98.8654 369.882C98.9177 369.623 98.9788 369.27 99.0661 368.813C99.2582 367.857 99.52 366.477 99.8692 364.719C100.594 361.142 101.641 356.014 102.924 349.678C105.543 336.991 109.253 319.476 113.512 300.16C117.772 280.844 121.778 263.39 124.746 250.771C126.239 244.479 127.452 239.385 128.299 235.843C128.726 234.101 129.058 232.74 129.294 231.791C129.407 231.343 129.494 230.998 129.564 230.74C129.625 230.507 129.66 230.386 129.669 230.386C129.669 230.386 129.652 230.516 129.608 230.748C129.556 231.007 129.477 231.36 129.381 231.809C129.171 232.765 128.857 234.127 128.464 235.877C127.653 239.428 126.492 244.539 125.052 250.84C122.171 263.476 118.208 280.939 113.949 300.255C109.689 319.562 105.927 337.068 103.23 349.739C101.886 356.057 100.786 361.185 100.026 364.745C99.6422 366.495 99.3454 367.865 99.1447 368.822C99.0399 369.27 98.9614 369.623 98.9003 369.882C98.8392 370.123 98.813 370.244 98.8043 370.235L98.813 370.253Z" fill="#455A64"/>
<path d="M141.671 229.119C141.671 229.119 141.322 229.197 140.685 229.249C139.951 229.3 139.052 229.361 137.988 229.438C135.709 229.585 132.567 229.74 129.11 230.076C125.654 230.421 122.538 230.878 120.277 231.171C119.221 231.3 118.322 231.412 117.597 231.507C116.96 231.576 116.611 231.602 116.602 231.567C116.602 231.533 116.943 231.455 117.571 231.335C118.2 231.214 119.107 231.05 120.233 230.861C122.485 230.49 125.601 229.981 129.076 229.637C132.55 229.3 135.709 229.197 137.988 229.128C139.131 229.094 140.056 229.085 140.693 229.085C141.331 229.085 141.688 229.102 141.688 229.128L141.671 229.119Z" fill="#455A64"/>
<path d="M161.633 218.173C161.633 218.173 161.397 218.268 160.961 218.337C160.525 218.406 159.879 218.458 159.076 218.423C157.487 218.363 155.244 217.828 153.236 216.406C151.229 214.984 150.007 213.045 149.439 211.588C149.151 210.855 148.994 210.235 148.915 209.795C148.846 209.364 148.837 209.114 148.863 209.114C148.942 209.097 149.09 210.062 149.736 211.459C150.364 212.855 151.578 214.674 153.498 216.036C155.418 217.397 157.557 217.958 159.093 218.096C160.638 218.251 161.616 218.078 161.624 218.165L161.633 218.173Z" fill="#455A64"/>
<path d="M103.526 202.701L163.291 202.511L160.018 163.561C159.66 154.648 159.712 153.588 159.485 145.357C159.485 145.357 167.97 155.484 174.647 162.587C178.68 166.879 185.069 168.077 190.429 165.578L225.352 141.521L218.814 125.006L187.077 144.184C185.619 143.297 173.268 125.885 164.731 117.395C159.267 111.957 151.9 108.828 144.14 108.604C138.275 108.431 131.187 108.707 124.859 109.371C115.24 110.379 107.715 118.007 106.912 127.523C106.293 134.806 106.79 143.262 106.79 157.631L103.517 202.701H103.526Z" fill="#455A64"/>
<path d="M106.327 131.462C106.327 131.462 106.336 131.617 106.336 131.919C106.336 132.264 106.336 132.695 106.336 133.22C106.319 134.35 106.319 135.987 106.336 138.013C106.362 142.064 106.528 147.649 106.703 153.829C106.877 160.009 106.912 165.612 106.755 169.654C106.685 171.68 106.589 173.318 106.493 174.447C106.45 174.973 106.415 175.395 106.388 175.748C106.362 176.041 106.336 176.196 106.336 176.196C106.336 176.196 106.336 176.041 106.354 175.74C106.371 175.395 106.397 174.964 106.423 174.438C106.502 173.309 106.572 171.671 106.624 169.646C106.746 165.595 106.694 160.001 106.519 153.829C106.345 147.649 106.196 142.055 106.205 138.004C106.205 135.979 106.231 134.341 106.266 133.203C106.284 132.677 106.301 132.246 106.31 131.902C106.319 131.6 106.336 131.445 106.336 131.445L106.327 131.462Z" fill="#14141E"/>
<path d="M185.768 149.761C185.768 149.761 185.794 149.451 185.89 148.951C185.995 148.451 186.143 147.77 186.318 147.011C186.492 146.253 186.667 145.572 186.798 145.089C186.929 144.598 187.025 144.296 187.051 144.305C187.077 144.305 187.025 144.624 186.92 145.124C186.815 145.624 186.667 146.305 186.492 147.054C186.318 147.804 186.143 148.485 186.012 148.977C185.881 149.468 185.785 149.77 185.759 149.761H185.768Z" fill="#14141E"/>
<path d="M188.954 150.253C188.901 150.261 188.544 148.874 188.142 147.15C187.74 145.426 187.461 144.021 187.505 144.004C187.548 143.986 187.915 145.383 188.317 147.107C188.718 148.83 188.997 150.235 188.945 150.253H188.954Z" fill="#14141E"/>
<path d="M160.961 146.822C160.961 146.822 160.847 146.727 160.638 146.529C160.393 146.296 160.088 146.003 159.721 145.658C158.935 144.891 157.792 143.788 156.439 142.365C155.086 140.943 153.515 139.211 151.979 137.116C150.451 135.03 148.959 132.565 147.92 129.755C146.872 126.954 146.427 124.084 146.584 121.498C146.707 118.921 147.204 116.594 148.086 114.835C148.959 113.06 150.146 111.922 151.019 111.267C151.464 110.948 151.822 110.707 152.083 110.577C152.337 110.431 152.476 110.362 152.476 110.362C152.494 110.388 151.935 110.655 151.071 111.319C150.207 111.982 149.055 113.129 148.208 114.887C147.344 116.637 146.864 118.938 146.759 121.507C146.611 124.075 147.056 126.911 148.103 129.695C149.133 132.488 150.608 134.936 152.127 137.021C153.646 139.107 155.208 140.848 156.544 142.279C157.888 143.71 159.005 144.831 159.782 145.606C160.14 145.968 160.428 146.261 160.672 146.503C160.873 146.71 160.978 146.822 160.978 146.822H160.961Z" fill="#14141E"/>
<path d="M122.109 130.79C122.013 130.867 121.097 129.885 120.058 128.601C119.019 127.316 118.269 126.204 118.365 126.127C118.461 126.049 119.377 127.032 120.416 128.316C121.446 129.6 122.205 130.712 122.109 130.79Z" fill="#FAFAFA"/>
<path d="M135.7 146.02C135.787 146.106 134.521 147.503 132.872 149.123C131.222 150.752 129.808 152.002 129.721 151.916C129.633 151.83 130.899 150.433 132.549 148.813C134.199 147.184 135.613 145.934 135.7 146.02Z" fill="#FAFAFA"/>
<path d="M148.846 167.862C148.715 167.896 148.235 166.569 147.353 165.086C146.48 163.595 145.538 162.526 145.634 162.44C145.712 162.354 146.838 163.31 147.746 164.862C148.663 166.405 148.959 167.844 148.846 167.87V167.862Z" fill="#FAFAFA"/>
<path d="M114.76 165.388C114.655 165.431 113.791 163.561 113.354 161.07C112.909 158.587 113.066 156.536 113.18 156.544C113.319 156.544 113.354 158.561 113.8 160.992C114.227 163.431 114.882 165.336 114.751 165.388H114.76Z" fill="#FAFAFA"/>
<path d="M132.863 175.007C132.758 175.05 132.06 173.473 131.877 171.37C131.676 169.266 132.086 167.594 132.2 167.62C132.331 167.637 132.139 169.301 132.331 171.335C132.505 173.369 132.994 174.972 132.863 175.016V175.007Z" fill="#FAFAFA"/>
<path d="M125.706 188.988C125.636 189.091 123.803 188.074 121.603 186.721C119.403 185.359 117.675 184.178 117.736 184.075C117.806 183.971 119.639 184.988 121.839 186.342C124.038 187.703 125.767 188.884 125.706 188.988Z" fill="#FAFAFA"/>
<path d="M153.838 184.851C153.891 184.971 151.866 185.962 149.518 187.436C147.161 188.893 145.38 190.272 145.302 190.169C145.223 190.082 146.89 188.531 149.282 187.057C151.665 185.566 153.795 184.747 153.838 184.851Z" fill="#FAFAFA"/>
<path d="M118.452 200.65C118.426 200.77 116.453 200.486 114.053 200.012C111.643 199.538 109.714 199.055 109.741 198.934C109.767 198.814 111.74 199.098 114.14 199.572C116.549 200.046 118.478 200.529 118.452 200.65Z" fill="#FAFAFA"/>
<path d="M137.315 197.616C137.228 197.693 136.145 196.573 135.237 194.909C134.321 193.246 133.963 191.746 134.076 191.711C134.199 191.668 134.74 193.073 135.639 194.694C136.52 196.314 137.42 197.529 137.315 197.616Z" fill="#FAFAFA"/>
<path d="M158.543 199.081C158.639 199.158 158.028 200.037 157.181 201.037C156.335 202.037 155.567 202.787 155.471 202.709C155.375 202.632 155.986 201.753 156.832 200.753C157.679 199.753 158.447 199.003 158.543 199.081Z" fill="#FAFAFA"/>
<path d="M119.718 139.832C119.788 139.935 119.011 140.573 117.981 141.245C116.951 141.926 116.061 142.391 115.991 142.288C115.921 142.185 116.698 141.547 117.728 140.874C118.758 140.194 119.648 139.728 119.718 139.832Z" fill="#FAFAFA"/>
<path d="M134.443 123.575C134.33 123.619 133.553 121.653 132.872 119.145C132.191 116.637 131.868 114.551 131.99 114.525C132.113 114.499 132.636 116.533 133.317 119.024C133.989 121.515 134.574 123.532 134.452 123.575H134.443Z" fill="#FAFAFA"/>
<path d="M148.592 138.375C148.54 138.495 147.265 138.013 145.624 137.711C143.992 137.392 142.622 137.384 142.622 137.246C142.613 137.134 144.01 136.944 145.712 137.263C147.414 137.582 148.645 138.263 148.592 138.366V138.375Z" fill="#FAFAFA"/>
<path d="M158.316 125.808C158.333 125.92 156.832 126.204 154.981 125.911C153.131 125.635 151.787 124.92 151.839 124.817C151.891 124.696 153.27 125.204 155.051 125.463C156.823 125.739 158.298 125.67 158.316 125.799V125.808Z" fill="#FAFAFA"/>
<path d="M168.267 139.823C168.153 139.823 168.075 137.677 168.511 135.074C168.93 132.462 169.689 130.454 169.803 130.488C169.934 130.523 169.375 132.574 168.965 135.143C168.537 137.711 168.406 139.832 168.275 139.823H168.267Z" fill="#FAFAFA"/>
<path d="M179.955 156.329C179.867 156.415 178.471 155.14 176.847 153.493C175.224 151.838 173.975 150.425 174.071 150.339C174.159 150.252 175.555 151.528 177.179 153.183C178.802 154.838 180.051 156.251 179.955 156.338V156.329Z" fill="#FAFAFA"/>
<path d="M189.678 155.062C189.783 155.131 189.085 156.389 188.107 157.88C187.138 159.372 186.265 160.518 186.161 160.458C186.056 160.389 186.754 159.13 187.732 157.639C188.701 156.148 189.574 155.002 189.678 155.062Z" fill="#FAFAFA"/>
<path d="M200.965 149.632C200.851 149.683 200.005 148.201 199.079 146.313C198.154 144.426 197.491 142.857 197.604 142.796C197.718 142.745 198.556 144.227 199.49 146.115C200.415 148.003 201.078 149.571 200.965 149.632Z" fill="#FAFAFA"/>
<path d="M216.327 143.357C216.301 143.478 214.511 143.262 212.32 142.883C210.129 142.495 208.366 142.09 208.392 141.961C208.419 141.84 210.208 142.055 212.399 142.435C214.59 142.823 216.353 143.228 216.327 143.357Z" fill="#FAFAFA"/>
<path d="M94.2998 159.492C94.1863 159.441 94.9108 157.682 95.9233 155.562C96.9359 153.442 97.8436 151.769 97.9571 151.83C98.0706 151.881 97.3461 153.64 96.3336 155.76C95.321 157.872 94.4133 159.544 94.2998 159.492Z" fill="#FAFAFA"/>
<path d="M102.443 145.305C102.347 145.391 101.169 144.236 99.7986 142.736C98.4282 141.236 97.3982 139.952 97.4942 139.866C97.5903 139.78 98.7686 140.935 100.139 142.434C101.509 143.934 102.539 145.218 102.443 145.305Z" fill="#FAFAFA"/>
<path d="M101.771 168.095C101.85 168.189 101.248 168.819 100.418 169.491C99.5891 170.172 98.8559 170.646 98.7773 170.542C98.6988 170.448 99.3011 169.818 100.13 169.146C100.96 168.465 101.693 168 101.771 168.095Z" fill="#FAFAFA"/>
<path d="M104.521 130.23C104.617 130.307 104.251 130.919 103.701 131.6C103.151 132.281 102.627 132.764 102.531 132.686C102.435 132.609 102.802 131.997 103.351 131.316C103.901 130.635 104.425 130.152 104.521 130.23Z" fill="#FAFAFA"/>
<g opacity="0.3">
<path d="M150.138 134.151C153.83 145.606 156.675 157.63 160.368 169.086L159.486 145.357C156.064 142.236 152.948 138.496 150.129 134.151H150.138Z" fill="#14141E"/>
</g>
<path d="M90.0757 149.141C90.0757 149.141 90.1106 149.037 90.1892 148.856C90.2939 148.623 90.4074 148.365 90.547 148.063C90.8613 147.374 91.3239 146.382 91.9174 145.167C93.1046 142.736 94.8154 139.418 96.8666 135.832C98.9266 132.255 100.925 129.092 102.427 126.842C103.177 125.713 103.797 124.817 104.234 124.196C104.426 123.929 104.592 123.696 104.74 123.489C104.853 123.326 104.923 123.248 104.923 123.248C104.923 123.248 104.871 123.343 104.766 123.507C104.626 123.722 104.469 123.955 104.286 124.231C103.823 124.937 103.23 125.834 102.523 126.911C101.048 129.178 99.0663 132.341 97.015 135.918C94.9638 139.496 93.2355 142.805 92.0222 145.219C91.4548 146.365 90.9747 147.331 90.5994 148.089C90.451 148.382 90.3288 148.641 90.2153 148.865C90.1281 149.046 90.0757 149.132 90.067 149.132L90.0757 149.141Z" fill="#14141E"/>
<path d="M95.9673 138.168C95.9673 138.168 95.6007 138.315 95.0158 138.565C94.431 138.815 93.6454 139.202 92.8511 139.745C92.0568 140.297 91.4109 140.883 90.9744 141.34C90.538 141.797 90.2936 142.098 90.2674 142.081C90.2587 142.081 90.3111 141.986 90.4071 141.84C90.5031 141.693 90.6689 141.487 90.8784 141.245C91.2974 140.762 91.9433 140.142 92.7464 139.59C93.5581 139.039 94.3699 138.651 94.9722 138.435C95.2777 138.323 95.5221 138.246 95.6967 138.203C95.8712 138.159 95.9673 138.142 95.976 138.151L95.9673 138.168Z" fill="#14141E"/>
<path d="M96.7879 120.49C96.8926 120.559 95.7055 122.36 94.1344 124.498C92.5632 126.635 91.2102 128.316 91.1142 128.238C91.0095 128.169 92.1966 126.377 93.7677 124.23C95.3389 122.093 96.6919 120.412 96.7879 120.49Z" fill="#FAFAFA"/>
<path d="M103.09 106.466C103.928 106.733 104.818 106.156 105.307 105.432C105.796 104.708 106.023 103.846 106.45 103.096C107.751 100.846 110.701 99.8636 111.888 97.545C112.054 97.2261 112.159 96.7779 111.871 96.5452C111.609 96.3297 111.216 96.4762 110.919 96.6227C108.327 97.907 105.735 99.1827 103.142 100.467" fill="#FFBE9D"/>
<path d="M103.142 100.476C103.142 100.476 103.413 100.269 103.937 99.9757C104.469 99.6826 105.237 99.2689 106.197 98.769C107.201 98.2604 108.336 97.6743 109.575 97.0365C109.898 96.8727 110.221 96.709 110.553 96.5452C110.876 96.4159 111.234 96.097 111.819 96.2435C112.107 96.3297 112.299 96.6486 112.29 96.9072C112.299 97.1658 112.229 97.3899 112.133 97.5968C111.932 97.976 111.714 98.3294 111.434 98.6569C110.326 99.9671 108.929 100.76 107.908 101.7C107.393 102.165 106.948 102.656 106.642 103.173C106.328 103.691 106.127 104.242 105.883 104.734C105.447 105.742 104.661 106.397 104.041 106.535C103.404 106.69 103.064 106.475 103.09 106.457C103.09 106.406 103.439 106.552 103.989 106.354C104.539 106.164 105.185 105.57 105.569 104.587C105.787 104.104 105.97 103.544 106.285 102.967C106.599 102.389 107.07 101.855 107.603 101.363C108.659 100.364 110.038 99.5533 111.059 98.338C111.312 98.0363 111.522 97.7088 111.696 97.3813C111.853 97.0624 111.845 96.7262 111.661 96.6917C111.461 96.6141 111.103 96.7951 110.771 96.9589C110.439 97.1227 110.108 97.2778 109.785 97.4416C108.528 98.045 107.376 98.588 106.363 99.0793C105.385 99.5361 104.591 99.8981 104.033 100.139C103.474 100.381 103.16 100.501 103.151 100.467L103.142 100.476Z" fill="#EB996E"/>
<path d="M354.443 337.249H299.191V344.748H354.443V337.249Z" fill="#14141E"/>
<path d="M354.531 344.843H299.095V337.163H354.531V344.843ZM299.287 344.653H354.348V337.344H299.287V344.653Z" fill="#14141E"/>
<path d="M304.315 342.249L312.267 380.993H341.691L349.381 344.748L304.315 342.249Z" fill="#14141E"/>
<path d="M304.315 377.329L308.557 383.087H344.319L349.381 377.329H304.315Z" fill="#455A64"/>
<path d="M324.74 343.386C324.635 343.386 324.496 325.441 324.426 303.306C324.365 281.163 324.4 263.218 324.504 263.218C324.609 263.218 324.749 281.163 324.819 303.306C324.88 325.441 324.845 343.386 324.74 343.386Z" fill="#14141E"/>
<path d="M337.048 298.471C337.048 298.471 337.013 298.617 336.9 298.885C336.769 299.186 336.603 299.574 336.402 300.048C336.289 300.307 336.175 300.583 336.044 300.884C335.931 301.203 335.808 301.539 335.678 301.901C335.547 302.272 335.398 302.66 335.25 303.074C335.101 303.487 334.988 303.936 334.84 304.41C334.237 306.271 333.757 308.547 333.295 311.09C332.893 313.641 332.588 316.468 332.439 319.442C332.169 325.406 332.509 330.811 332.876 334.698C333.05 336.646 333.233 338.223 333.364 339.309C333.417 339.818 333.469 340.232 333.504 340.559C333.53 340.844 333.539 340.999 333.53 340.999C333.513 340.999 333.487 340.852 333.426 340.568C333.373 340.24 333.303 339.827 333.216 339.327C333.041 338.249 332.814 336.672 332.605 334.724C332.169 330.828 331.785 325.406 332.055 319.416C332.204 316.425 332.518 313.581 332.945 311.021C333.426 308.469 333.941 306.177 334.586 304.323C334.744 303.858 334.866 303.41 335.023 302.987C335.18 302.574 335.337 302.186 335.477 301.824C335.616 301.462 335.756 301.126 335.878 300.815C336.018 300.514 336.158 300.238 336.271 299.988C336.498 299.522 336.69 299.152 336.83 298.85C336.961 298.592 337.039 298.462 337.048 298.471Z" fill="#14141E"/>
<path d="M335.634 283.956C335.634 283.956 335.581 284.163 335.459 284.551C335.319 284.964 335.127 285.525 334.883 286.223C334.752 286.585 334.612 286.99 334.464 287.429C334.324 287.878 334.176 288.36 334.019 288.877C333.696 289.92 333.321 291.093 332.989 292.42C332.814 293.084 332.631 293.773 332.43 294.497C332.264 295.23 332.09 295.98 331.915 296.764C331.531 298.324 331.252 300.022 330.894 301.798C330.283 305.366 329.75 309.305 329.375 313.46C329.026 317.623 328.878 321.597 328.816 325.208C328.808 328.828 328.851 332.086 329 334.819C329.052 336.189 329.139 337.422 329.209 338.508C329.27 339.594 329.34 340.525 329.41 341.292C329.462 342.024 329.515 342.61 329.541 343.05C329.567 343.455 329.576 343.662 329.558 343.662C329.541 343.662 329.515 343.455 329.462 343.05C329.41 342.61 329.34 342.033 329.253 341.3C329.157 340.542 329.07 339.602 328.982 338.525C328.886 337.439 328.782 336.206 328.712 334.836C328.528 332.104 328.45 328.837 328.441 325.208C328.476 321.579 328.616 317.597 328.965 313.425C329.331 309.254 329.881 305.306 330.519 301.738C330.885 299.962 331.173 298.264 331.575 296.695C331.758 295.911 331.941 295.152 332.116 294.428C332.317 293.704 332.509 293.015 332.701 292.351C333.05 291.024 333.443 289.843 333.792 288.809C333.958 288.291 334.124 287.809 334.272 287.369C334.438 286.938 334.586 286.533 334.726 286.171C334.996 285.481 335.215 284.938 335.372 284.525C335.52 284.154 335.607 283.956 335.625 283.964L335.634 283.956Z" fill="#14141E"/>
<path d="M321.249 346.558C321.249 346.558 321.231 346.489 321.214 346.351C321.196 346.187 321.179 345.989 321.161 345.731C321.126 345.162 321.065 344.36 320.995 343.352C320.864 341.257 320.672 338.275 320.445 334.612C319.965 327.233 319.276 317.037 318.019 305.823C317.373 300.22 316.631 294.894 315.854 290.067C315.444 287.653 315.069 285.361 314.641 283.232C314.248 281.094 313.829 279.112 313.445 277.302C313.078 275.491 312.677 273.862 312.354 272.432C312.031 271.001 311.725 269.768 311.464 268.768C311.219 267.786 311.027 267.01 310.888 266.458C310.826 266.208 310.783 266.01 310.748 265.855C310.722 265.717 310.704 265.648 310.713 265.648C310.713 265.648 310.748 265.717 310.783 265.846C310.826 266.002 310.888 266.2 310.957 266.441C311.114 266.993 311.333 267.76 311.603 268.734C311.883 269.734 312.214 270.958 312.555 272.389C312.904 273.819 313.323 275.44 313.707 277.25C314.108 279.06 314.545 281.034 314.946 283.18C315.383 285.309 315.767 287.61 316.195 290.015C316.989 294.842 317.748 300.177 318.394 305.788C319.651 317.011 320.306 327.216 320.707 334.603C320.908 338.301 321.048 341.283 321.135 343.352C321.17 344.36 321.205 345.162 321.222 345.731C321.222 345.981 321.231 346.187 321.24 346.351C321.24 346.489 321.24 346.567 321.231 346.567L321.249 346.558Z" fill="#14141E"/>
<path d="M324.286 271.846C324.051 269.303 321.441 267.381 318.857 267.355C316.273 267.329 313.864 268.863 312.276 270.88C310.696 272.897 309.823 275.371 309.107 277.819C307.37 283.809 306.41 290.101 307.161 296.29C307.903 302.479 310.451 308.573 314.947 312.943C315.68 313.649 316.623 314.365 317.626 314.149C318.176 314.037 318.621 313.658 319.04 313.287C327.874 305.409 332.98 293.601 332.631 281.853C332.561 279.499 332.247 277.052 330.929 275.086C329.611 273.121 326.53 271.044 324.286 271.828" fill="#1EACFC"/>
<path d="M304.978 251.478C303.765 253.65 302.552 255.822 301.339 257.994C301.251 258.149 301.138 258.313 300.963 258.33C300.771 258.348 300.632 258.167 300.527 258.011C297.315 253.15 294.111 248.28 290.899 243.419L293.116 242.178L304.978 251.487V251.478Z" fill="#1EACFC"/>
<g opacity="0.2">
<path d="M304.978 251.478C303.765 253.65 302.552 255.822 301.339 257.994C301.251 258.149 301.138 258.313 300.963 258.33C300.771 258.348 300.632 258.167 300.527 258.011C297.315 253.15 294.111 248.28 290.899 243.419L293.116 242.178L304.978 251.487V251.478Z" fill="#14141E"/>
</g>
<path d="M324.513 263.218C313.568 256.839 302.613 250.461 291.667 244.074C291.336 243.876 290.969 243.652 290.864 243.281C290.733 242.798 291.1 242.342 291.449 241.98C295.97 237.377 302.526 234.713 309.002 235.17C315.479 235.627 321.703 239.325 324.871 244.919C328.04 250.513 328.145 257.908 324.513 263.218Z" fill="#1EACFC"/>
<path d="M296.398 237.963C296.398 237.963 296.546 237.928 296.826 237.911C297.105 237.894 297.524 237.851 298.065 237.851C299.147 237.825 300.71 237.894 302.621 238.204C304.533 238.514 306.768 239.118 309.116 240.152C311.455 241.178 313.873 242.66 316.081 244.617C318.272 246.591 320.009 248.823 321.275 251.021C322.549 253.219 323.378 255.357 323.885 257.201C324.391 259.046 324.618 260.58 324.696 261.64C324.757 262.166 324.731 262.304 324.749 262.588C324.749 262.873 324.513 263.295 324.496 263.295C324.461 263.295 324.679 262.709 324.548 261.657C324.417 260.606 324.155 259.089 323.623 257.27C322.584 253.659 320.175 248.789 315.828 244.901C311.472 241.014 306.331 239.135 302.587 238.471C300.701 238.126 299.147 238.014 298.074 237.997C297 237.971 296.407 237.997 296.407 237.954L296.398 237.963Z" fill="#14141E"/>
<path d="M320.07 250.004C320.088 250.056 319.459 250.34 318.412 250.745C317.364 251.15 315.907 251.676 314.266 252.185C312.633 252.693 311.132 253.107 310.041 253.366C308.95 253.633 308.26 253.753 308.251 253.702C308.234 253.65 308.897 253.435 309.971 253.098C311.184 252.728 312.59 252.288 314.152 251.806C315.706 251.306 317.111 250.857 318.324 250.478C319.389 250.142 320.061 249.944 320.079 249.995L320.07 250.004Z" fill="#14141E"/>
<path d="M314.895 236.282C314.999 236.273 315.235 237.894 315.287 239.902C315.34 241.91 315.191 243.539 315.087 243.539C314.973 243.539 314.947 241.91 314.895 239.919C314.842 237.92 314.79 236.299 314.895 236.291V236.282Z" fill="#14141E"/>
<path d="M291.379 243.712C291.362 243.66 292.269 243.333 293.762 242.885C295.255 242.428 297.332 241.859 299.645 241.307C301.967 240.756 304.079 240.333 305.616 240.066C307.152 239.799 308.112 239.678 308.121 239.73C308.129 239.782 307.187 239.997 305.668 240.333C304.149 240.669 302.045 241.135 299.732 241.678C297.419 242.23 295.342 242.764 293.832 243.143C292.322 243.531 291.388 243.764 291.37 243.712H291.379Z" fill="#14141E"/>
<path d="M310.661 266.329C307.833 264.217 304.847 263.795 301.304 263.933C297.76 264.071 294.312 265.14 291.065 266.545C285.522 268.941 280.32 272.475 277.012 277.465C273.703 282.464 272.551 289.076 275.03 294.523C275.275 295.066 275.598 295.635 276.156 295.868C276.741 296.118 277.404 295.919 278.007 295.73C284.309 293.704 290.655 291.653 296.442 288.472C302.238 285.292 307.51 280.879 310.617 275.095C311.359 273.707 311.988 272.225 312.11 270.656C312.232 269.087 311.796 267.424 310.661 266.32" fill="#1EACFC"/>
<path d="M310.713 265.666C310.713 265.666 310.565 265.743 310.259 265.847C309.919 265.959 309.483 266.114 308.941 266.295C308.653 266.39 308.33 266.493 307.99 266.614C307.641 266.734 307.274 266.889 306.873 267.045C306.078 267.364 305.153 267.682 304.176 268.148C303.687 268.372 303.163 268.605 302.631 268.846C302.098 269.087 301.557 269.389 300.998 269.674C299.855 270.225 298.703 270.932 297.472 271.656C295.054 273.164 292.505 274.974 290.009 277.121C287.539 279.284 285.391 281.56 283.567 283.732C282.694 284.844 281.83 285.887 281.132 286.938C280.774 287.455 280.407 287.938 280.093 288.438C279.779 288.929 279.482 289.403 279.203 289.86C278.609 290.756 278.173 291.618 277.754 292.36C277.553 292.73 277.352 293.075 277.178 293.403C277.02 293.73 276.872 294.023 276.741 294.299C276.488 294.808 276.279 295.213 276.121 295.532C275.973 295.816 275.894 295.954 275.877 295.954C275.868 295.954 275.921 295.79 276.043 295.506C276.183 295.178 276.366 294.756 276.593 294.239C276.715 293.963 276.855 293.653 277.003 293.325C277.16 292.997 277.352 292.644 277.553 292.265C277.954 291.515 278.382 290.636 278.958 289.722C279.238 289.257 279.534 288.783 279.84 288.274C280.145 287.774 280.512 287.283 280.87 286.757C281.568 285.697 282.415 284.637 283.296 283.516C285.112 281.318 287.268 279.017 289.756 276.836C292.261 274.681 294.845 272.863 297.28 271.363C298.519 270.648 299.689 269.949 300.85 269.406C301.426 269.122 301.967 268.829 302.508 268.596C303.05 268.363 303.573 268.139 304.071 267.924C305.057 267.467 305.991 267.165 306.803 266.872C307.213 266.726 307.58 266.588 307.938 266.467C308.287 266.364 308.61 266.269 308.906 266.183C309.456 266.028 309.902 265.898 310.251 265.803C310.556 265.717 310.722 265.683 310.722 265.7L310.713 265.666Z" fill="#14141E"/>
<path d="M288.647 277.465C288.673 277.569 285.601 278.551 281.778 279.655C277.954 280.758 274.83 281.568 274.795 281.465C274.768 281.361 277.841 280.379 281.664 279.276C285.487 278.172 288.612 277.362 288.647 277.465Z" fill="#14141E"/>
<path d="M288.359 292.446C288.306 292.446 288.245 291.636 288.21 290.334C288.175 289.024 288.167 287.223 288.228 285.223C288.28 283.232 288.394 281.422 288.498 280.12C288.612 278.819 288.716 278.017 288.769 278.017C288.821 278.017 288.812 278.827 288.769 280.137C288.725 281.568 288.673 283.309 288.612 285.232C288.559 287.154 288.516 288.895 288.481 290.326C288.446 291.627 288.411 292.437 288.35 292.437L288.359 292.446Z" fill="#14141E"/>
<path d="M301.348 285.912C301.243 285.912 300.894 282.249 300.579 277.715C300.265 273.181 300.091 269.492 300.204 269.484C300.309 269.484 300.658 273.147 300.972 277.681C301.286 282.214 301.461 285.904 301.348 285.904V285.912Z" fill="#14141E"/>
<path d="M285.182 269.122C285.182 269.07 286.028 269.044 287.381 269.053C288.743 269.062 290.611 269.105 292.68 269.165C294.748 269.234 296.625 269.311 297.978 269.398C299.331 269.475 300.169 269.553 300.169 269.605C300.169 269.656 299.331 269.682 297.969 269.673C296.608 269.665 294.731 269.622 292.662 269.561C290.594 269.492 288.717 269.415 287.364 269.329C286.011 269.251 285.173 269.174 285.173 269.122H285.182Z" fill="#14141E"/>
<path d="M316.361 313.805C316.361 313.805 316.335 313.658 316.317 313.374C316.3 313.046 316.282 312.632 316.256 312.124C316.204 311.038 316.195 309.469 316.239 307.53C316.274 305.59 316.405 303.28 316.64 300.729C316.893 298.178 317.269 295.376 317.792 292.454C318.334 289.541 318.988 286.783 319.66 284.301C320.35 281.827 321.048 279.612 321.712 277.776C322.366 275.94 322.934 274.474 323.37 273.475C323.571 273.009 323.737 272.621 323.868 272.32C323.99 272.061 324.051 271.923 324.068 271.932C324.077 271.932 324.033 272.078 323.946 272.354C323.833 272.664 323.693 273.052 323.518 273.526C323.126 274.543 322.602 276.026 321.982 277.862C321.362 279.698 320.69 281.913 320.018 284.387C319.364 286.869 318.726 289.61 318.185 292.515C317.653 295.42 317.277 298.212 317.007 300.755C316.754 303.298 316.588 305.599 316.518 307.53C316.439 309.46 316.413 311.029 316.413 312.115C316.413 312.624 316.405 313.037 316.396 313.365C316.396 313.649 316.378 313.805 316.361 313.805Z" fill="#14141E"/>
<path d="M318.098 292.567C318.098 292.567 317.635 293.153 316.788 293.989C315.942 294.825 314.728 295.945 313.358 297.144C311.979 298.333 310.696 299.367 309.744 300.091C308.793 300.815 308.182 301.229 308.147 301.186C308.112 301.143 308.662 300.652 309.57 299.876C310.582 299.014 311.778 297.98 313.105 296.851C314.414 295.704 315.61 294.661 316.605 293.791C317.504 293.006 318.063 292.532 318.106 292.567H318.098Z" fill="#14141E"/>
<path d="M328.493 300.833C328.45 300.858 327.926 300.126 327.097 298.928C326.198 297.635 325.081 296.023 323.85 294.247C322.593 292.489 321.449 290.894 320.533 289.619C319.677 288.438 319.162 287.697 319.206 287.662C319.25 287.628 319.843 288.309 320.76 289.455C321.668 290.601 322.89 292.205 324.173 294.032C325.456 295.851 326.564 297.54 327.333 298.781C328.101 300.022 328.537 300.815 328.493 300.841V300.833Z" fill="#14141E"/>
<path d="M323.047 274.828C323.108 274.914 319.651 277.215 315.331 279.956C311.01 282.697 307.466 284.844 307.405 284.757C307.344 284.671 310.8 282.37 315.121 279.629C319.442 276.888 322.986 274.742 323.047 274.828Z" fill="#14141E"/>
<path d="M332.779 285.206C332.701 285.283 330.361 283.146 327.56 280.439C324.749 277.733 322.532 275.474 322.61 275.397C322.689 275.319 325.028 277.457 327.839 280.163C330.649 282.87 332.867 285.128 332.788 285.206H332.779Z" fill="#14141E"/>
<path d="M335.232 284.999L338.2 284.757C340.304 284.585 342.346 283.973 344.188 282.947C345.096 282.439 346.012 281.948 346.981 281.56C350.647 280.103 354.732 280.37 358.678 280.172C365.12 279.853 371.483 278.241 377.287 275.474C377.619 275.311 377.916 275.069 378.099 274.75C378.71 273.656 377.575 272.682 376.607 272.087C371.614 269.044 366.525 265.967 360.86 264.459C355.195 262.95 348.762 263.209 343.935 266.493C338.261 270.346 336.193 278.267 335.232 284.999Z" fill="#1EACFC"/>
<path d="M378.169 274.388C378.169 274.388 377.986 274.319 377.663 274.156C377.305 273.975 376.842 273.733 376.257 273.432C375.035 272.802 373.281 271.863 371.064 270.811C368.847 269.777 366.158 268.605 363.033 267.752C359.917 266.898 356.33 266.45 352.62 266.915C348.928 267.398 345.532 268.812 343.123 270.941C340.705 273.061 339.222 275.621 338.183 277.793C337.144 279.991 336.498 281.853 336.036 283.128C335.817 283.74 335.643 284.232 335.512 284.602C335.39 284.939 335.32 285.111 335.302 285.111C335.294 285.111 335.337 284.921 335.433 284.577C335.547 284.197 335.704 283.697 335.887 283.077C336.306 281.784 336.917 279.896 337.93 277.672C338.951 275.466 340.417 272.854 342.888 270.665C345.34 268.467 348.814 267.01 352.568 266.519C356.339 266.045 359.987 266.51 363.129 267.39C366.281 268.269 368.978 269.475 371.186 270.544C373.394 271.63 375.131 272.604 376.327 273.277C376.895 273.604 377.349 273.871 377.698 274.07C378.012 274.251 378.169 274.354 378.16 274.371L378.169 274.388Z" fill="#14141E"/>
<path d="M371.047 278.164C370.986 278.25 367.11 275.776 362.388 272.63C357.666 269.484 353.886 266.864 353.947 266.778C354.008 266.691 357.884 269.165 362.606 272.311C367.328 275.457 371.108 278.078 371.047 278.164Z" fill="#14141E"/>
<path d="M366.909 266.579C366.927 266.666 365.67 266.95 364.09 267.079C362.501 267.209 361.21 267.131 361.21 267.045C361.21 266.95 362.484 266.89 364.055 266.76C365.626 266.631 366.892 266.493 366.909 266.579Z" fill="#14141E"/>
<path d="M349.932 264.39C350.028 264.433 349.452 265.312 348.657 266.355C347.863 267.398 347.138 268.208 347.042 268.165C346.946 268.122 347.522 267.243 348.317 266.2C349.111 265.157 349.836 264.347 349.932 264.39Z" fill="#14141E"/>
<path d="M353.406 280.422C353.38 280.465 352.664 280.094 351.538 279.422C350.42 278.75 348.902 277.767 347.287 276.604C345.672 275.44 344.241 274.345 343.219 273.544C342.198 272.742 341.578 272.225 341.613 272.182C341.648 272.139 342.32 272.578 343.394 273.328C344.555 274.164 345.969 275.173 347.523 276.293C349.137 277.448 350.613 278.465 351.695 279.189C352.777 279.913 353.441 280.37 353.406 280.422Z" fill="#14141E"/>
<path d="M339.597 297.436C336.769 296.695 333.399 299.419 332.814 302.246C332.23 305.073 333.303 307.969 334.569 310.581C337.353 316.356 341.203 321.708 346.265 325.691C351.328 329.673 357.674 332.224 364.142 332.19C362.946 326.708 364.456 320.976 363.793 315.408C363.208 310.546 360.912 305.901 357.394 302.453C353.868 299.005 349.146 296.79 344.214 296.264C342.407 296.075 340.321 295.79 339.597 297.436Z" fill="#1EACFC"/>
<path d="M364.141 332.19C364.141 332.19 363.993 332.138 363.74 332.009C363.487 331.871 363.12 331.647 362.684 331.31C361.793 330.647 360.781 329.362 359.89 327.621C359.436 326.759 358.939 325.82 358.441 324.777C357.961 323.734 357.455 322.622 356.923 321.458C356.381 320.295 355.788 319.088 355.055 317.907C354.321 316.726 353.449 315.571 352.48 314.451C350.542 312.201 348.464 310.262 346.666 308.409C344.859 306.564 343.332 304.78 342.232 303.16C341.124 301.539 340.451 300.091 340.067 299.074C339.884 298.557 339.753 298.16 339.692 297.876C339.622 297.6 339.587 297.454 339.605 297.445C339.64 297.436 339.806 298.014 340.216 299.014C340.635 300.005 341.342 301.418 342.468 302.996C343.585 304.582 345.113 306.323 346.928 308.15C348.735 309.986 350.83 311.925 352.785 314.192C353.763 315.321 354.644 316.494 355.386 317.7C356.128 318.898 356.722 320.131 357.254 321.303C357.778 322.476 358.275 323.587 358.738 324.639C359.209 325.673 359.707 326.621 360.135 327.492C360.99 329.233 361.933 330.5 362.78 331.19C363.609 331.896 364.167 332.155 364.141 332.19Z" fill="#14141E"/>
<path d="M349.521 327.63C349.469 327.621 349.556 326.897 349.783 325.751C350.001 324.605 350.368 323.019 350.857 321.303C351.345 319.58 351.869 318.045 352.288 316.951C352.707 315.856 353.013 315.192 353.056 315.21C353.109 315.227 352.899 315.925 352.55 317.037C352.201 318.149 351.721 319.692 351.232 321.398C350.743 323.113 350.342 324.674 350.054 325.803C349.765 326.932 349.573 327.63 349.521 327.621V327.63Z" fill="#14141E"/>
<path d="M363.609 314.167C363.591 314.218 362.832 314.029 361.619 313.718C360.397 313.408 358.721 312.977 356.844 312.555C354.967 312.141 353.265 311.814 352.026 311.581C350.786 311.348 350.018 311.202 350.027 311.15C350.027 311.098 350.812 311.15 352.069 311.314C353.318 311.477 355.046 311.762 356.931 312.176C358.817 312.598 360.493 313.072 361.697 313.451C362.902 313.839 363.626 314.115 363.609 314.167Z" fill="#14141E"/>
<path d="M339.02 318.08C338.968 318.071 339.081 317.235 339.326 315.908C339.57 314.572 339.972 312.744 340.495 310.736C341.028 308.736 341.586 306.944 342.032 305.659C342.477 304.375 342.791 303.599 342.843 303.616C342.896 303.634 342.678 304.444 342.302 305.745C341.927 307.047 341.412 308.84 340.879 310.84C340.356 312.831 339.919 314.649 339.596 315.968C339.282 317.287 339.073 318.097 339.02 318.088V318.08Z" fill="#14141E"/>
<path d="M357.115 302.444C357.106 302.548 353.571 302.272 349.232 301.815C344.886 301.358 341.377 300.901 341.385 300.798C341.394 300.694 344.929 300.97 349.267 301.427C353.606 301.884 357.123 302.341 357.106 302.444H357.115Z" fill="#14141E"/>
<path d="M354.532 344.714C354.532 344.817 342.119 344.912 326.818 344.912C311.517 344.912 299.104 344.826 299.104 344.714C299.104 344.602 311.508 344.515 326.818 344.515C342.128 344.515 354.532 344.602 354.532 344.714Z" fill="#455A64"/>
<path d="M345.899 360.487C345.899 360.591 337.537 360.685 327.228 360.685C316.92 360.685 308.557 360.599 308.557 360.487C308.557 360.375 316.92 360.289 327.228 360.289C337.537 360.289 345.899 360.375 345.899 360.487Z" fill="#455A64"/>
<path d="M345.576 362.737C345.576 362.84 337.362 362.935 327.228 362.935C317.094 362.935 308.88 362.849 308.88 362.737C308.88 362.625 317.094 362.538 327.228 362.538C337.362 362.538 345.576 362.625 345.576 362.737Z" fill="#455A64"/>
<path d="M346.222 358.625C346.222 358.729 337.571 358.823 326.905 358.823C316.238 358.823 307.588 358.737 307.588 358.625C307.588 358.513 316.238 358.427 326.905 358.427C337.571 358.427 346.222 358.513 346.222 358.625Z" fill="#455A64"/>
<path d="M84.131 69.1358C84.131 69.1358 84.2271 69.3686 84.3929 69.8168C84.5588 70.2822 84.8032 70.9459 85.1174 71.8078C85.7459 73.5748 86.6624 76.1434 87.8495 79.4532L87.9106 79.6084L87.736 79.5825C84.646 79.1688 80.8491 78.6602 76.4934 78.0741L76.5982 78.0483C73.1678 80.7116 68.5765 83.013 63.1472 83.8491C61.7943 84.0646 60.3977 84.1852 58.9662 84.2025C58.2504 84.2197 57.5259 84.1508 56.8015 84.1249C56.4348 84.1077 56.0682 84.0904 55.7016 84.0732C55.335 84.0387 54.9684 83.9698 54.6018 83.918C51.6428 83.5733 48.6488 82.6682 45.7858 81.2978C42.9228 79.9273 40.182 78.0483 37.7816 75.7038C35.3987 73.3421 33.3823 70.4977 31.9072 67.3172C28.9394 60.9819 28.3197 53.2159 30.7288 46.0877C32.8062 39.7266 37.2404 34.443 42.5126 30.978C45.1486 29.2196 48.0815 28.0388 51.023 27.2458L52.1316 26.9614L52.6815 26.8234L53.2401 26.7373C53.9908 26.6252 54.7328 26.5131 55.466 26.4011C56.2079 26.3408 56.9498 26.3235 57.6918 26.2804C58.4337 26.2115 59.1669 26.2632 59.8914 26.3063C60.6159 26.3666 61.3491 26.3321 62.0561 26.4614C62.7719 26.5735 63.4789 26.6769 64.1772 26.7803C64.8755 26.8924 65.5563 27.1165 66.2372 27.2717L67.2497 27.5302C67.5814 27.6337 67.9044 27.763 68.2273 27.875C70.8634 28.7111 73.2114 30.0557 75.3587 31.4779C79.5834 34.4516 82.7694 38.2268 84.6984 42.14C86.6798 46.036 87.5614 49.9578 87.7622 53.3883C88.0328 56.836 87.5527 59.8183 86.9592 62.1714C86.3569 64.5245 85.5975 66.2656 85.0388 67.4206C84.7595 67.9981 84.5238 68.4291 84.3667 68.7049C84.2009 68.9893 84.1136 69.1358 84.1136 69.1358C84.1136 69.1358 84.1747 68.9893 84.3231 68.6963C84.4802 68.4032 84.6897 67.9636 84.9603 67.3861C85.484 66.2311 86.2172 64.4814 86.7933 62.1369C87.3519 59.7925 87.8058 56.836 87.5091 53.4142C87.2821 50.0095 86.3918 46.1308 84.4104 42.2866C82.4813 38.4251 79.3128 34.7188 75.1405 31.7882C73.0107 30.3919 70.6976 29.0731 68.0877 28.2543C67.7647 28.1422 67.4505 28.0129 67.1188 27.9095L66.115 27.6595C65.4429 27.5044 64.7795 27.2889 64.0812 27.1768C63.3916 27.0734 62.6933 26.97 61.9863 26.8665C61.288 26.7373 60.5635 26.7717 59.8478 26.72C59.132 26.6769 58.4075 26.6338 57.6831 26.7028C56.9586 26.7459 56.2254 26.7631 55.4921 26.8234C54.7677 26.9355 54.0345 27.0475 53.2925 27.1596L52.7426 27.2458L52.2014 27.3837L51.1103 27.6595C48.2124 28.4439 45.3319 29.6161 42.7308 31.3486C37.5372 34.7619 33.1816 39.968 31.1303 46.2342C28.7648 53.2504 29.3671 60.8957 32.2825 67.1362C33.7315 70.265 35.7216 73.0749 38.0609 75.4107C40.4177 77.7293 43.1148 79.5825 45.9429 80.9444C48.7623 82.3062 51.7213 83.2113 54.6367 83.556C55.0033 83.6077 55.3612 83.6767 55.7191 83.7112C56.0857 83.7284 56.4436 83.7456 56.8015 83.7629C57.5172 83.7887 58.233 83.8663 58.94 83.8491C60.354 83.8405 61.7332 83.7198 63.0687 83.5129C68.4368 82.7113 72.9845 80.4531 76.3974 77.8414L76.4498 77.8069H76.5109C80.8578 78.4275 84.6548 78.9619 87.7447 79.4015L87.6313 79.5394C86.4878 76.1951 85.5975 73.6007 84.9865 71.8251C84.6984 70.9632 84.4715 70.2908 84.3144 69.8254C84.166 69.3772 84.1049 69.1445 84.1049 69.1445L84.131 69.1358Z" fill="#14141E"/>
<path d="M60.0923 48.5356C60.4851 48.7252 60.7557 49.1131 60.7557 49.5785V55.319C60.7557 55.681 60.5811 56.0172 60.293 56.2413C60.005 56.4567 59.6209 56.5257 59.2718 56.4309C58.3465 56.1723 57.3078 56.3275 56.4262 56.8619C55.6145 57.3532 55.0471 58.0944 54.8725 58.9133C54.6979 59.7235 54.9162 60.6371 55.4661 61.4215C56.0509 62.2576 56.9499 62.8437 57.8665 62.9902C59.7431 63.2833 61.8293 61.9473 62.4403 60.0683C62.6323 59.4649 63.2957 59.1287 63.9067 59.3184C64.5265 59.5166 64.8582 60.1631 64.6661 60.7664C63.7147 63.7142 60.5025 65.7312 57.4999 65.2657C55.9461 65.0244 54.5059 64.0935 53.5458 62.7316C52.638 61.4301 52.2888 59.87 52.5856 58.4478C52.8911 57.0084 53.8425 55.7155 55.2129 54.8966C56.1993 54.3019 57.3166 54.0002 58.4164 54.0089V49.5871C58.4164 48.9493 58.9401 48.4321 59.586 48.4321C59.7693 48.4321 59.9352 48.4752 60.0923 48.5442V48.5356Z" fill="#0066F9"/>
<path d="M58.4778 46.1221C58.4603 45.605 58.8793 45.1654 59.4117 45.1568C59.9355 45.1395 60.3806 45.5533 60.3894 46.079C60.3981 46.6048 59.9878 47.0358 59.4554 47.0444C58.9317 47.0616 58.4865 46.6479 58.4778 46.1221Z" fill="#0066F9"/>
<path opacity="0.5" d="M16.8519 383.311H371.841" stroke="#14141E" stroke-width="0.958278" stroke-linecap="round"/>
</svg>
