<svg width="34" height="37" viewBox="0 0 34 37" fill="none" xmlns="http://www.w3.org/2000/svg">
<g id="Group 12">
<g id="Group 11">
<path id="Subtract" fill-rule="evenodd" clip-rule="evenodd" d="M0.189209 7.15277C0.189209 3.2024 3.39162 0 7.34198 0H19.5842C25.9909 0 31.1846 5.19365 31.1846 11.6003C31.1846 16.5991 28.0228 20.8593 23.5901 22.4904L33.202 36.0387H11.1936L11.1936 7.33622C11.1936 5.31039 9.55131 3.66813 7.52548 3.66813C5.49965 3.66813 3.85739 5.31038 3.85739 7.33621L3.85739 36.0387H0.189209V23.2007V22.4667V7.15277Z" fill="#0066F9"/>
<path id="Rectangle 30" d="M7.52563 9.07874H18.0714L16.1882 11.8298L18.0714 14.5809H7.52563V9.07874Z" fill="#1EACFC"/>
<path id="Vector 9" d="M6.85819 35.5803L6.85819 36.2478L8.19308 36.2478L8.19308 35.5803L6.85819 35.5803ZM8.19308 8.25305C8.19308 7.88443 7.89426 7.5856 7.52563 7.5856C7.15701 7.5856 6.85819 7.88443 6.85819 8.25305L8.19308 8.25305ZM8.19308 35.5803L8.19308 8.25305L6.85819 8.25305L6.85819 35.5803L8.19308 35.5803Z" fill="#0066F9"/>
</g>
</g>
</svg>
