<svg width="20" height="20" viewBox="0 0 20 20" fill="none" xmlns="http://www.w3.org/2000/svg">
<g id="vuesax/linear/notification">
<g id="notification">
<path id="Vector" d="M10.0167 2.42505C7.25835 2.42505 5.01668 4.66672 5.01668 7.42505V9.83338C5.01668 10.3417 4.80001 11.1167 4.54168 11.55L3.58335 13.1417C2.99168 14.125 3.40001 15.2167 4.48335 15.5834C8.07501 16.7834 11.95 16.7834 15.5417 15.5834C16.55 15.25 16.9917 14.0584 16.4417 13.1417L15.4833 11.55C15.2333 11.1167 15.0167 10.3417 15.0167 9.83338V7.42505C15.0167 4.67505 12.7667 2.42505 10.0167 2.42505Z" stroke="#14141E" stroke-width="1.5" stroke-miterlimit="10" stroke-linecap="round"/>
<path id="Vector_2" d="M11.5583 2.66658C11.3 2.59158 11.0333 2.53324 10.7583 2.49991C9.95834 2.39991 9.19167 2.45824 8.47501 2.66658C8.71667 2.04991 9.31667 1.61658 10.0167 1.61658C10.7167 1.61658 11.3167 2.04991 11.5583 2.66658Z" stroke="#14141E" stroke-width="1.5" stroke-miterlimit="10" stroke-linecap="round" stroke-linejoin="round"/>
<path id="Vector_3" d="M12.5167 15.8834C12.5167 17.2584 11.3917 18.3834 10.0167 18.3834C9.33333 18.3834 8.7 18.1001 8.25 17.6501C7.8 17.2001 7.51666 16.5668 7.51666 15.8834" stroke="#14141E" stroke-width="1.5" stroke-miterlimit="10"/>
</g>
</g>
</svg>
