<?xml version="1.0" standalone="no"?>
<!DOCTYPE svg PUBLIC "-//W3C//DTD SVG 20010904//EN"
 "http://www.w3.org/TR/2001/REC-SVG-20010904/DTD/svg10.dtd">
<svg version="1.0" xmlns="http://www.w3.org/2000/svg"
 width="1024.000000pt" height="1024.000000pt" viewBox="0 0 1024.000000 1024.000000"
 preserveAspectRatio="xMidYMid meet">
<metadata>
Created by potrace 1.16, written by Peter Selinger 2001-2019
</metadata>
<g transform="translate(0.000000,1024.000000) scale(0.100000,-0.100000)"
fill="#ea580c" stroke="none">
<path d="M4951 8335 c-59 -42 -75 -76 -68 -150 12 -125 40 -156 143 -157 70
-1 118 17 153 57 59 67 65 155 14 215 -38 45 -74 60 -145 60 -50 -1 -70 -6
-97 -25z"/>
<path d="M4543 8321 c-17 -11 -44 -40 -58 -66 -58 -98 -12 -225 100 -281 45
-22 64 -25 100 -20 63 8 90 29 121 92 24 49 26 63 21 121 -8 83 -31 122 -87
151 -58 29 -151 30 -197 3z"/>
<path d="M4236 8160 c-66 -21 -136 -126 -136 -206 0 -51 32 -102 80 -127 27
-14 50 -17 98 -14 72 5 92 20 143 99 27 41 30 54 25 91 -7 46 -47 141 -65 152
-19 11 -114 15 -145 5z"/>
<path d="M5362 8095 c-45 -36 -82 -69 -82 -74 0 -4 37 -11 83 -15 529 -43
1052 -247 1451 -566 156 -125 311 -272 412 -393 82 -97 221 -303 283 -418 188
-350 331 -815 366 -1196 l7 -72 44 -26 c25 -14 50 -35 57 -46 24 -38 29 -17
23 94 -11 183 -24 289 -56 448 -56 277 -134 498 -282 797 -262 533 -699 961
-1268 1241 -252 124 -419 180 -739 246 -95 19 -183 38 -195 41 -17 4 -42 -11
-104 -61z"/>
<path d="M3799 7792 c-155 -78 -336 -209 -538 -391 -286 -258 -593 -726 -731
-1116 -131 -368 -177 -682 -167 -1140 6 -293 25 -446 83 -677 44 -178 44 -175
-10 -183 -40 -6 -44 -9 -49 -42 -8 -50 6 -79 42 -86 33 -7 5538 2 5559 9 9 3
12 22 10 66 l-3 63 -32 3 -33 3 0 123 c0 115 1 124 20 129 17 4 20 14 20 55 0
35 -4 52 -15 56 -13 5 -15 43 -15 258 l0 253 -46 53 c-63 71 -115 100 -205
112 -41 5 -80 10 -86 10 -8 0 -13 13 -13 30 l0 30 85 0 85 0 0 30 0 30 -78 0
-79 0 -11 38 c-17 55 -35 68 -152 107 -65 21 -113 44 -129 60 l-26 25 -5 543
c-6 597 -3 574 -70 651 -18 20 -51 46 -73 57 -50 26 -184 40 -377 40 -751 -1
-1089 -5 -1110 -13 -35 -13 -80 -57 -96 -95 -8 -18 -14 -58 -14 -89 l0 -56
-185 3 -185 4 0 -36 c0 -20 6 -41 13 -47 6 -6 46 -14 87 -18 60 -6 70 -9 50
-16 -30 -11 -117 -93 -134 -128 -21 -40 -25 -104 -18 -289 l7 -174 35 -12 c19
-7 45 -15 57 -19 l22 -7 -6 220 c-7 262 -8 260 89 284 34 9 63 15 64 14 1 -1
4 -125 8 -275 6 -268 6 -274 -14 -279 -11 -3 -20 -9 -20 -13 0 -19 29 -33 220
-105 21 -8 52 -11 78 -8 41 6 42 5 42 -24 0 -27 6 -32 80 -63 45 -18 110 -50
145 -71 35 -22 66 -39 68 -39 2 0 7 183 11 406 l7 406 -27 55 c-18 38 -43 68
-80 96 -29 23 -50 45 -47 50 3 5 34 7 68 5 35 -1 66 0 70 3 3 4 3 25 -1 47
l-6 40 -184 -2 -184 -3 0 58 0 58 53 5 c28 3 221 7 427 8 l375 3 3 -62 3 -63
-83 0 c-72 0 -87 -3 -113 -24 -23 -19 -27 -26 -18 -38 10 -11 0 -25 -52 -71
-36 -32 -77 -79 -92 -105 l-28 -47 0 -600 c0 -330 -1 -817 -2 -1082 l-3 -483
-41 0 -41 0 3 615 4 616 -195 95 c-392 192 -667 309 -708 301 -15 -2 -63 -20
-107 -39 -44 -19 -192 -83 -330 -142 -271 -116 -397 -177 -445 -216 l-31 -25
-6 -603 -6 -602 -40 0 -40 0 6 107 c4 58 7 348 7 644 l0 538 23 7 c12 4 41 20
64 36 51 34 284 148 305 148 8 0 22 6 31 13 15 11 16 26 7 167 -5 85 -14 254
-20 375 -6 121 -19 353 -30 515 -30 471 -35 590 -21 590 18 0 41 63 41 110 0
35 -4 43 -30 58 -24 14 -30 24 -30 52 0 19 -3 45 -6 57 l-6 22 -236 -6 c-264
-6 -253 -3 -304 -82 -24 -38 -28 -55 -28 -112 0 -66 14 -99 42 -99 7 0 9 -31
4 -97 -17 -251 -26 -417 -36 -643 -10 -247 -25 -522 -57 -1033 l-17 -278 -45
3 -46 3 -5 275 -5 275 -29 53 c-30 53 -74 94 -120 112 -23 8 -26 15 -26 60 l0
50 100 0 100 0 0 56 0 55 -397 -3 c-432 -3 -440 -4 -469 -59 -8 -16 -14 -55
-14 -89 0 -47 -3 -60 -15 -60 -47 0 -142 -77 -178 -145 -21 -37 -22 -57 -27
-310 l-5 -270 -94 -3 -94 -3 6 118 c8 156 37 322 93 521 57 205 94 304 182
479 149 298 373 599 605 811 118 108 298 242 367 274 47 21 49 24 64 87 15 62
48 117 91 153 11 10 18 17 15 17 -3 1 -57 -25 -121 -57z m366 -414 c3 -29 1
-177 -5 -328 -11 -277 -20 -540 -39 -1075 -6 -159 -13 -357 -17 -438 l-7 -148
-51 3 -51 3 2 110 c1 61 7 202 13 315 6 113 15 288 20 390 5 102 13 259 19
350 6 91 18 309 26 485 19 391 19 385 55 385 27 0 29 -3 35 -52z m2935 -543
c65 -62 63 -39 67 -610 3 -286 9 -536 14 -556 12 -47 61 -115 101 -139 18 -11
65 -27 105 -36 l72 -17 7 -44 c9 -62 3 -69 -59 -76 -84 -8 -142 -39 -218 -116
l-69 -69 -1 -274 c-1 -150 -4 -284 -8 -298 -5 -15 -3 -31 4 -40 7 -9 15 -65
19 -132 l6 -118 -44 0 -43 0 -8 223 c-4 122 -6 355 -5 517 2 162 3 548 1 858
-2 634 1 612 -77 681 -24 21 -44 43 -44 49 0 6 -9 16 -20 22 -12 6 -36 28 -54
48 -33 36 -37 37 -115 40 l-81 4 0 52 c0 29 3 56 7 60 4 4 98 6 210 4 l202 -3
31 -30z m-680 -585 l0 -280 -81 0 -80 0 3 238 c2 181 6 243 16 255 15 18 109
67 129 67 10 0 13 -57 13 -280z m-2940 -78 c0 -48 0 -49 -41 -61 -46 -14 -117
-75 -151 -130 -22 -34 -23 -47 -28 -311 l-5 -275 -28 -3 -29 -3 4 268 c2 255
2 270 -18 314 -26 55 -82 114 -129 133 -33 14 -35 17 -35 65 l0 51 230 0 230
0 0 -48z m-503 -169 c4 -10 -4 -37 -20 -65 l-27 -48 0 -250 0 -251 -67 3 -68
3 -3 160 c-2 88 0 202 3 253 6 84 10 97 39 135 21 27 47 48 76 59 57 21 59 22
67 1z m583 2 c0 -2 -13 -24 -30 -47 l-30 -43 -3 -260 -3 -260 -67 -3 -67 -3 0
244 c0 236 1 245 23 288 28 52 85 89 140 89 20 0 37 -2 37 -5z m2831 -145 l29
0 0 -240 0 -240 -80 0 -80 0 0 239 0 240 38 4 c20 2 43 2 50 0 8 -2 27 -3 43
-3z m-1108 -116 c56 -25 150 -68 209 -95 59 -27 110 -49 113 -49 4 0 81 -34
171 -76 l164 -77 0 -571 0 -571 -785 -4 -785 -3 0 565 c0 439 3 567 13 575 6
5 59 30 117 55 58 25 141 62 185 83 117 54 479 213 488 213 4 1 54 -20 110
-45z m-2358 -954 l0 -485 -67 -3 -68 -3 0 485 0 485 33 4 c17 2 48 4 67 3 l35
-1 0 -485z m335 242 c0 -137 -3 -357 -7 -490 l-6 -242 -24 0 -23 0 0 490 0
490 30 0 30 0 0 -248z m596 100 c-3 -81 -11 -250 -16 -377 -5 -126 -13 -281
-16 -342 -7 -110 -8 -113 -30 -113 l-24 0 0 483 c0 266 2 486 5 488 2 3 23 5
46 6 l42 2 -7 -147z m-1168 -344 l-3 -483 -27 -3 c-23 -3 -28 1 -34 25 -3 15
-14 62 -24 103 -60 242 -100 530 -100 711 l0 129 95 0 95 0 -2 -482z m805 462
c3 -12 3 -230 0 -485 l-6 -465 -62 0 c-42 0 -64 4 -66 13 -2 6 -3 225 -1 485
l3 472 63 0 c56 0 64 -3 69 -20z m2925 -217 l-3 -238 -77 -3 -78 -3 0 234 c0
128 3 237 7 240 3 4 39 7 80 7 l73 0 -2 -237z m1285 188 c28 -11 36 -27 15
-28 -163 -11 -428 -14 -428 -6 0 17 34 41 65 46 50 9 318 -1 348 -12z m-3613
-73 c0 -24 -5 -146 -11 -273 -6 -126 -14 -306 -17 -400 l-7 -170 -64 -3 -64
-3 7 68 c3 37 13 205 21 373 15 310 23 429 32 443 2 4 26 7 54 7 l49 0 0 -42z
m3305 -115 c4 -21 4 -113 0 -205 l-8 -168 -73 0 -74 0 0 198 c0 109 3 202 7
205 3 4 37 7 74 7 l67 0 7 -37z m-977 -535 l-3 -193 -77 -3 -78 -3 0 185 c0
214 -4 205 98 206 l62 0 -2 -192z m1054 -44 c1 -46 2 -99 2 -116 l1 -33 -107
0 -108 0 0 112 0 112 43 3 c23 2 70 4 105 4 l62 2 2 -84z m296 65 l44 -14 -4
-92 c-2 -50 -5 -94 -8 -97 -3 -2 -53 -6 -110 -7 l-105 -2 3 114 c1 63 2 116 2
118 0 8 137 -7 178 -20z"/>
<path d="M4516 5294 c-8 -59 -8 -128 0 -185 l6 -44 104 0 104 0 0 61 c0 34 -3
95 -6 137 l-7 77 -97 0 -97 0 -7 -46z"/>
<path d="M4872 5204 l3 -135 108 -2 107 -2 0 138 0 137 -110 0 -111 0 3 -136z"/>
<path d="M5240 5198 c0 -124 2 -139 16 -134 9 3 58 6 110 6 l95 0 -3 132 -3
133 -107 1 -108 2 0 -140z"/>
<path d="M5604 5331 c-6 -6 -5 -84 3 -178 l6 -83 93 0 c80 0 93 -2 97 -17 3
-10 4 49 3 130 l-1 148 -98 2 c-54 1 -101 0 -103 -2z"/>
<path d="M4514 4695 l-1 -135 108 0 109 0 0 135 0 135 -107 0 -108 0 -1 -135z"/>
<path d="M4878 4692 l-3 -132 108 0 107 0 0 136 0 135 -104 -3 -105 -3 -3
-133z"/>
<path d="M5240 4695 l0 -135 110 0 110 0 0 135 0 135 -110 0 -110 0 0 -135z"/>
<path d="M5610 4698 l0 -133 77 -1 c43 0 87 -2 98 -5 19 -4 20 2 23 131 l2
135 -100 3 -100 3 0 -133z"/>
<path d="M5109 7776 c-143 -51 -215 -219 -158 -371 24 -66 65 -109 137 -148
106 -57 219 -43 310 38 123 111 135 283 27 403 -63 70 -113 92 -206 92 -41 -1
-90 -7 -110 -14z"/>
<path d="M5814 3960 c-48 -24 -74 -50 -103 -105 -55 -105 12 -269 125 -303 62
-18 105 -15 163 14 128 64 165 216 82 331 -57 79 -178 107 -267 63z"/>
<path d="M4615 3953 c-159 -34 -296 -114 -377 -219 -69 -90 -96 -144 -118
-229 -46 -181 -4 -377 107 -496 87 -94 187 -144 438 -218 77 -23 165 -53 195
-67 138 -63 185 -176 112 -273 -39 -52 -101 -75 -202 -75 -150 1 -309 58 -434
159 -38 30 -72 55 -76 55 -3 0 -32 -46 -64 -102 -33 -57 -83 -138 -113 -181
-30 -43 -51 -82 -48 -87 10 -17 140 -98 230 -143 209 -106 481 -143 680 -92
33 8 107 38 164 66 184 91 299 233 337 419 41 202 -20 388 -168 511 -81 67
-209 126 -434 198 -105 33 -206 71 -224 83 -50 35 -72 82 -67 147 3 48 9 59
44 92 46 43 94 59 173 59 116 0 282 -61 369 -134 l44 -37 29 43 c16 24 35 57
42 73 7 17 45 72 84 124 40 52 72 98 72 102 0 4 -30 30 -67 59 -74 55 -183
111 -274 140 -127 41 -326 51 -454 23z"/>
<path d="M2530 3953 c-26 -9 -50 -35 -50 -53 0 -9 10 -26 23 -38 l23 -22 671
0 c663 0 671 0 697 21 31 25 33 48 6 77 l-21 22 -667 -1 c-367 0 -674 -3 -682
-6z"/>
<path d="M6382 3937 c-28 -30 -28 -48 1 -74 22 -20 31 -20 769 -18 712 1 748
2 768 20 24 22 25 38 4 70 l-16 25 -752 0 -753 0 -21 -23z"/>
<path d="M2585 3731 c-44 -3 -86 -10 -92 -14 -20 -13 -15 -54 10 -77 l22 -22
671 4 c619 3 673 5 697 21 31 20 35 49 9 75 -17 17 -53 18 -628 18 -335 0
-645 -2 -689 -5z"/>
<path d="M6386 3719 c-32 -25 -33 -49 -3 -76 22 -20 34 -20 763 -22 l740 -2
27 25 c31 29 33 43 11 74 l-15 22 -748 0 c-742 0 -749 0 -775 -21z"/>
<path d="M7059 3520 c-638 -5 -668 -6 -688 -24 -27 -24 -26 -32 4 -61 l24 -25
749 0 c725 0 749 1 766 19 25 27 17 72 -14 88 -15 8 -55 12 -100 10 -41 -1
-375 -4 -741 -7z"/>
<path d="M2506 3499 c-33 -26 -33 -52 -2 -77 24 -18 46 -19 693 -15 l668 5 23
24 c27 31 28 60 3 74 -13 6 -247 10 -689 10 -662 0 -670 0 -696 -21z"/>
<path d="M5696 3382 c-3 -3 -6 -321 -6 -706 l0 -701 218 -3 217 -3 -2 702 c-2
386 -4 704 -7 706 -6 6 -414 12 -420 5z"/>
<path d="M3169 3300 c-618 -5 -648 -6 -668 -24 -27 -25 -27 -51 1 -70 20 -14
102 -16 695 -16 l672 0 21 22 c29 32 26 64 -10 83 -16 8 -37 14 -47 13 -10 -2
-309 -5 -664 -8z"/>
<path d="M6371 3276 c-19 -20 -21 -28 -12 -45 6 -11 20 -25 31 -31 12 -6 273
-10 759 -10 l740 0 20 26 c26 33 27 60 2 74 -13 7 -271 10 -769 10 l-749 0
-22 -24z"/>
<path d="M6376 3059 l-31 -27 21 -29 21 -28 754 -6 c450 -4 761 -2 772 3 26
14 19 66 -13 89 -23 16 -75 18 -759 21 l-735 4 -30 -27z"/>
<path d="M2503 3063 c-30 -20 -29 -54 0 -81 l24 -22 678 7 c639 6 679 7 697
25 23 23 23 50 0 71 -17 16 -79 17 -698 16 -600 0 -682 -2 -701 -16z"/>
<path d="M2985 2863 c-465 -3 -470 -3 -487 -24 -26 -31 -22 -55 13 -79 l30
-22 657 4 c361 3 664 8 673 12 9 4 25 23 35 42 l19 36 -24 19 c-21 18 -39 19
-235 17 -116 -2 -422 -4 -681 -5z"/>
<path d="M6373 2849 c-20 -20 -21 -25 -8 -49 8 -15 27 -32 42 -38 19 -8 253
-12 749 -14 698 -3 722 -2 743 16 24 21 27 54 9 78 -12 15 -91 17 -763 23
l-750 7 -22 -23z"/>
</g>
</svg>
